<svg width="147" height="147" viewBox="0 0 147 147" fill="none" xmlns="http://www.w3.org/2000/svg">
<circle cx="73.5" cy="73.5" r="72.5" fill="#92A4E4" stroke="white" stroke-width="2"/>
<path d="M53.256 69.376H59.232V71.896H53.256V69.376ZM53.256 65.416H59.232V67.912H53.256V65.416ZM53.256 61.528H59.232V63.976H53.256V61.528ZM43.584 75.88H46.056V77.776H43.584V75.88ZM46.056 71.632H43.584V69.928H46.056V71.632ZM46.056 74.656H43.584V72.88H46.056V74.656ZM58.824 79C58.416 79 58.368 78.904 58.368 78.376V73.48H60.888V59.92H51.672V73.48H53.4C53.112 75.616 52.512 77.392 50.88 78.616V77.776H47.592V75.88H50.4V74.656H47.592V72.88H50.4V71.632H47.592V69.928H50.712V68.632H47.664C47.928 68.152 48.216 67.6 48.504 67.048L46.872 66.712C46.728 67.24 46.44 68.008 46.128 68.632H43.704C44.16 67.888 44.592 67.12 44.976 66.304H51.048V64.84H45.6C45.912 64.096 46.176 63.328 46.416 62.56H50.64V61.096H43.752C44.016 60.52 44.232 59.92 44.424 59.32L42.816 58.936C42.264 60.736 41.328 62.536 40.152 63.76C40.56 63.976 41.232 64.432 41.52 64.696C42.048 64.096 42.552 63.376 43.008 62.56H44.736C44.496 63.352 44.208 64.096 43.896 64.84H40.224V66.304H43.2C42.264 68.08 41.112 69.64 39.816 70.816C40.128 71.152 40.704 71.848 40.92 72.184C41.28 71.824 41.64 71.44 42 71.032V80.272H43.584V79.168H50.016C49.752 79.312 49.44 79.456 49.128 79.576C49.44 79.864 49.92 80.488 50.112 80.872C53.448 79.384 54.528 76.864 54.96 73.48H56.76V78.376C56.76 80.032 57.12 80.512 58.608 80.512H60.288C61.608 80.512 62.016 79.72 62.16 76.504C61.728 76.384 61.056 76.144 60.72 75.88C60.672 78.64 60.576 79 60.12 79H58.824ZM82.056 59.824C81.36 61.744 80.064 64.36 79.032 65.968L80.52 66.568C81.576 65.032 82.872 62.56 83.856 60.496L82.056 59.824ZM70.896 65.968C70.464 64.36 69.216 61.912 67.992 60.088L66.384 60.688C67.584 62.56 68.784 65.08 69.216 66.64L70.896 65.968ZM79.968 79.12C79.056 79.12 78.864 78.952 78.864 78.16V69.712H85.68V68.008H75.816V58.912H74.04V68.008H64.392V69.712H70.776C70.392 74.248 69.504 77.632 63.912 79.312C64.296 79.648 64.824 80.392 65.016 80.824C70.992 78.856 72.192 74.944 72.648 69.712H77.064V78.184C77.064 80.2 77.664 80.776 79.776 80.776H83.232C85.248 80.776 85.728 79.744 85.944 75.88C85.464 75.736 84.696 75.424 84.312 75.088C84.192 78.52 84.024 79.12 83.088 79.12H79.968ZM90.648 62.728H107.256V65.56H109.032V61.072H99.84V58.936H98.04V61.072H88.944V65.56H90.648V62.728ZM94.008 73.504C95.76 72.88 97.464 72.136 99.048 71.248C100.752 72.184 102.648 72.928 104.688 73.504H94.008ZM94.176 78.472V74.992H103.872V78.472H94.176ZM95.496 66.328H102.72C101.76 67.432 100.512 68.44 99.072 69.328C97.608 68.488 96.36 67.528 95.424 66.424L95.496 66.328ZM104.256 64.84L103.944 64.912H96.864C97.272 64.456 97.632 63.976 97.968 63.496L96.048 63.136C94.848 64.984 92.52 67.072 89.232 68.536C89.64 68.824 90.168 69.4 90.432 69.808C91.848 69.112 93.096 68.32 94.176 67.456C95.088 68.512 96.192 69.448 97.416 70.264C94.536 71.752 91.152 72.832 87.936 73.408C88.272 73.792 88.656 74.512 88.824 74.968C90.024 74.704 91.248 74.392 92.472 74.008V80.8H94.176V80.008H103.872V80.776H105.672V73.768C106.728 74.032 107.808 74.248 108.912 74.416C109.152 73.888 109.632 73.144 110.04 72.712C106.656 72.28 103.416 71.44 100.728 70.192C102.648 68.896 104.304 67.36 105.456 65.584L104.256 64.84Z" fill="black"/>
</svg>
