<svg width="156" height="156" viewBox="0 0 156 156" fill="none" xmlns="http://www.w3.org/2000/svg">
<circle cx="78" cy="78" r="77" fill="#92A4E4" stroke="white" stroke-width="2"/>
<circle cx="78.5" cy="78.5" r="72.5" fill="#92A4E4" stroke="white" stroke-width="2"/>
<path d="M82.384 31.564H91.348V35.344H82.384V31.564ZM82.384 25.624H91.348V29.368H82.384V25.624ZM82.384 19.792H91.348V23.464H82.384V19.792ZM67.876 41.32H71.584V44.164H67.876V41.32ZM71.584 34.948H67.876V32.392H71.584V34.948ZM71.584 39.484H67.876V36.82H71.584V39.484ZM90.736 46C90.124 46 90.052 45.856 90.052 45.064V37.72H93.832V17.38H80.008V37.72H82.6C82.168 40.924 81.268 43.588 78.82 45.424V44.164H73.888V41.32H78.1V39.484H73.888V36.82H78.1V34.948H73.888V32.392H78.568V30.448H73.996C74.392 29.728 74.824 28.9 75.256 28.072L72.808 27.568C72.592 28.36 72.16 29.512 71.692 30.448H68.056C68.74 29.332 69.388 28.18 69.964 26.956H79.072V24.76H70.9C71.368 23.644 71.764 22.492 72.124 21.34H78.46V19.144H68.128C68.524 18.28 68.848 17.38 69.136 16.48L66.724 15.904C65.896 18.604 64.492 21.304 62.728 23.14C63.34 23.464 64.348 24.148 64.78 24.544C65.572 23.644 66.328 22.564 67.012 21.34H69.604C69.244 22.528 68.812 23.644 68.344 24.76H62.836V26.956H67.3C65.896 29.62 64.168 31.96 62.224 33.724C62.692 34.228 63.556 35.272 63.88 35.776C64.42 35.236 64.96 34.66 65.5 34.048V47.908H67.876V46.252H77.524C77.128 46.468 76.66 46.684 76.192 46.864C76.66 47.296 77.38 48.232 77.668 48.808C82.672 46.576 84.292 42.796 84.94 37.72H87.64V45.064C87.64 47.548 88.18 48.268 90.412 48.268H92.932C94.912 48.268 95.524 47.08 95.74 42.256C95.092 42.076 94.084 41.716 93.58 41.32C93.508 45.46 93.364 46 92.68 46H90.736ZM89.584 62.236C88.54 65.116 86.596 69.04 85.048 71.452L87.28 72.352C88.864 70.048 90.808 66.34 92.284 63.244L89.584 62.236ZM72.844 71.452C72.196 69.04 70.324 65.368 68.488 62.632L66.076 63.532C67.876 66.34 69.676 70.12 70.324 72.46L72.844 71.452ZM86.452 91.18C85.084 91.18 84.796 90.928 84.796 89.74V77.068H95.02V74.512H80.224V60.868H77.56V74.512H63.088V77.068H72.664C72.088 83.872 70.756 88.948 62.368 91.468C62.944 91.972 63.736 93.088 64.024 93.736C72.988 90.784 74.788 84.916 75.472 77.068H82.096V89.776C82.096 92.8 82.996 93.664 86.164 93.664H91.348C94.372 93.664 95.092 92.116 95.416 86.32C94.696 86.104 93.544 85.636 92.968 85.132C92.788 90.28 92.536 91.18 91.132 91.18H86.452ZM66.472 111.592H91.384V115.84H94.048V109.108H80.26V105.904H77.56V109.108H63.916V115.84H66.472V111.592ZM71.512 127.756C74.14 126.82 76.696 125.704 79.072 124.372C81.628 125.776 84.472 126.892 87.532 127.756H71.512ZM71.764 135.208V129.988H86.308V135.208H71.764ZM73.744 116.992H84.58C83.14 118.648 81.268 120.16 79.108 121.492C76.912 120.232 75.04 118.792 73.636 117.136L73.744 116.992ZM86.884 114.76L86.416 114.868H75.796C76.408 114.184 76.948 113.464 77.452 112.744L74.572 112.204C72.772 114.976 69.28 118.108 64.348 120.304C64.96 120.736 65.752 121.6 66.148 122.212C68.272 121.168 70.144 119.98 71.764 118.684C73.132 120.268 74.788 121.672 76.624 122.896C72.304 125.128 67.228 126.748 62.404 127.612C62.908 128.188 63.484 129.268 63.736 129.952C65.536 129.556 67.372 129.088 69.208 128.512V138.7H71.764V137.512H86.308V138.664H89.008V128.152C90.592 128.548 92.212 128.872 93.868 129.124C94.228 128.332 94.948 127.216 95.56 126.568C90.484 125.92 85.624 124.66 81.592 122.788C84.472 120.844 86.956 118.54 88.684 115.876L86.884 114.76Z" fill="white"/>
</svg>
