<svg width="741" height="705" viewBox="0 0 741 705" fill="none" xmlns="http://www.w3.org/2000/svg">
<path d="M653.132 371.902C656.096 334.438 646.937 295.324 634.666 260.512C616.512 208.68 581.062 155.565 521.486 143.298C487.133 136.248 452.173 143.806 422.711 161.515C394.39 178.548 372.323 200.558 337.481 204.817C302.254 209.131 266.108 207.397 230.703 207.397C139.664 207.397 65.7859 298.384 84.2517 393.164C102.717 487.945 189.8 553.665 263.677 553.665C330.071 553.665 384.698 515.778 447.757 505.598C479.027 500.55 510.43 506.528 541.375 498.971C577.343 490.172 611.162 469.206 631.095 438.848C644.67 418.15 651.28 395.35 653.132 371.902Z" fill="#E9280E"/>
<path opacity="0.7" d="M653.132 371.902C656.096 334.438 646.937 295.324 634.666 260.512C616.512 208.68 581.062 155.565 521.486 143.298C487.133 136.248 452.173 143.806 422.711 161.515C394.39 178.548 372.323 200.558 337.481 204.817C302.254 209.131 266.108 207.397 230.703 207.397C139.664 207.397 65.7859 298.384 84.2517 393.164C102.717 487.945 189.8 553.665 263.677 553.665C330.071 553.665 384.698 515.778 447.757 505.598C479.027 500.55 510.43 506.528 541.375 498.971C577.343 490.172 611.162 469.206 631.095 438.848C644.67 418.15 651.28 395.35 653.132 371.902Z" fill="white"/>
<path d="M642.477 358.746C642.477 358.746 642.477 351.696 632.103 341.925C621.729 332.154 615.149 326.485 615.149 326.485C615.149 326.485 609.991 342.616 619.595 352.444C626.644 359.346 634.289 365.675 642.447 371.366L642.477 358.746Z" fill="#E9280E"/>
<path d="M627.509 402.541C627.509 402.541 627.509 395.491 617.135 385.72C606.761 375.948 600.21 370.28 600.21 370.28C600.21 370.28 595.038 386.41 604.656 396.238C611.706 403.14 619.35 409.47 627.509 415.16V402.541Z" fill="#E9280E"/>
<path d="M641.825 370.689C641.825 370.689 642.61 363.724 653.962 354.996C665.314 346.268 672.532 341.361 672.532 341.361C672.532 341.361 675.866 357.914 665.255 366.741C657.479 372.898 649.175 378.425 640.432 383.266L641.825 370.689Z" fill="#E9280E"/>
<path d="M623.744 422.408C623.744 422.408 625.226 415.555 637.542 408.012C649.857 400.468 657.504 396.309 657.504 396.309C657.504 396.309 658.986 413.116 647.471 420.8C639.057 426.147 630.189 430.816 620.958 434.759L623.744 422.408Z" fill="#E9280E"/>
<path d="M627.138 478.808C627.138 478.808 627.138 471.758 637.512 461.972C647.886 452.187 654.451 446.547 654.451 446.547C654.451 446.547 659.623 462.677 650.005 472.491C642.958 479.4 635.314 485.735 627.153 491.427L627.138 478.808Z" fill="#E9280E"/>
<path d="M626.975 492.569C626.975 492.569 628.012 485.632 619.268 474.521C610.525 463.411 604.789 456.953 604.789 456.953C604.789 456.953 597.276 472.223 605.293 483.235C611.237 491.023 617.855 498.324 625.078 505.062L626.975 492.569Z" fill="#E9280E"/>
<path d="M616.794 533.361C616.794 533.361 616.794 526.311 627.168 516.539C637.542 506.768 644.122 501.1 644.122 501.1C644.122 501.1 649.279 517.23 639.676 527.058C632.624 533.963 624.98 540.297 616.823 545.994L616.794 533.361Z" fill="#E9280E"/>
<path d="M623.685 570.345C623.685 570.345 621.818 563.563 629.183 551.578C636.549 539.593 641.484 532.571 641.484 532.571C641.484 532.571 650.761 546.925 644.107 558.741C639.129 567.118 633.423 575.084 627.049 582.556L623.685 570.345Z" fill="#E9280E"/>
<path d="M643.41 356.956C642.892 364.256 641.952 371.524 640.595 378.726C636.504 398.776 626.308 411.72 622.233 429.824C618.157 447.929 629.865 471.264 626.679 494.529C623.492 517.794 614.037 530.724 616.749 546.248C619.461 561.772 633.748 603.818 633.748 603.818" stroke="#263238" stroke-linecap="round" stroke-linejoin="round"/>
<path d="M641.736 375.356L652.851 367.234" stroke="#263238" stroke-linecap="round" stroke-linejoin="round"/>
<path d="M642.254 366.008L637.586 358.126" stroke="#263238" stroke-linecap="round" stroke-linejoin="round"/>
<path d="M622.855 428.992C622.855 428.992 632.162 422.351 641.736 415.71" stroke="#263238" stroke-linecap="round" stroke-linejoin="round"/>
<path d="M627.509 415.16C627.509 415.16 619.743 400.694 610.955 391.106" stroke="#263238" stroke-linecap="round" stroke-linejoin="round"/>
<path d="M627.509 488.791C632.818 479.455 639.527 470.906 647.427 463.411" stroke="#263238" stroke-linecap="round" stroke-linejoin="round"/>
<path d="M625.7 498.632C622.876 492.303 619.5 486.209 615.608 480.415C610.184 472.787 609.398 471.8 609.398 471.8" stroke="#263238" stroke-linecap="round" stroke-linejoin="round"/>
<path d="M616.794 546.248C619.157 540.691 621.961 535.312 625.182 530.16C628.405 525.371 632.038 520.844 636.045 516.624" stroke="#263238" stroke-linecap="round" stroke-linejoin="round"/>
<path d="M627.049 582.556C626.509 577.242 627.471 571.887 629.835 567.046C633.718 559.911 638.105 550.563 639.913 546.868" stroke="#263238" stroke-linecap="round" stroke-linejoin="round"/>
<path d="M558.269 452.441C558.269 452.441 557.469 448.042 562.819 440.808C568.169 433.575 571.711 429.387 571.711 429.387C571.711 429.387 576.78 438.975 571.889 446.11C568.257 451.171 564.187 455.934 559.722 460.351L558.269 452.441Z" fill="#E9280E"/>
<path d="M572.66 478.357C572.66 478.357 571.859 473.957 577.209 466.724C582.56 459.491 586.101 455.303 586.101 455.303C586.101 455.303 591.17 464.891 586.279 472.04C582.644 477.094 578.575 481.853 574.112 486.267L572.66 478.357Z" fill="#E9280E"/>
<path d="M560.033 459.857C560.033 459.857 558.758 455.627 550.637 451.27C542.516 446.914 537.447 444.629 537.447 444.629C537.447 444.629 537.24 455.359 544.857 459.787C550.434 462.841 556.269 465.45 562.301 467.584L560.033 459.857Z" fill="#E9280E"/>
<path d="M577.284 490.426C577.284 490.426 575.535 486.281 566.998 482.812C558.462 479.344 553.127 477.539 553.127 477.539C553.127 477.539 554.105 488.227 562.226 491.864C568.112 494.345 574.204 496.354 580.44 497.871L577.284 490.426Z" fill="#E9280E"/>
<path d="M581.581 526.141C581.581 526.141 580.796 521.742 573.193 516.652C565.591 511.562 560.804 508.728 560.804 508.728C560.804 508.728 559.411 519.373 566.539 524.534C571.746 528.142 577.264 531.326 583.034 534.052L581.581 526.141Z" fill="#E9280E"/>
<path d="M583.271 534.757C583.271 534.757 581.789 530.527 586.042 522.631C590.295 514.735 593.111 510.124 593.111 510.124C593.111 510.124 599.558 518.922 595.794 526.663C592.958 532.159 589.641 537.418 585.879 542.385L583.271 534.757Z" fill="#E9280E"/>
<path d="M596.224 570.218C596.224 570.218 596.757 565.791 604.034 560.348C611.31 554.906 615.89 551.761 615.89 551.761C615.89 551.761 617.92 562.322 611.118 567.863C606.135 571.742 600.821 575.218 595.231 578.255L596.224 570.218Z" fill="#E9280E"/>
<path d="M594.282 559.276C594.282 559.276 593.482 554.877 585.894 549.787C578.306 544.697 573.534 541.863 573.534 541.863C573.534 541.863 572.141 552.508 579.269 557.683C584.481 561.285 589.998 564.469 595.764 567.201L594.282 559.276Z" fill="#E9280E"/>
<path d="M594.282 583.19C594.282 583.19 594.667 578.735 588.68 571.981C582.693 565.227 578.81 561.335 578.81 561.335C578.81 561.335 574.616 571.29 580.144 578.015C584.196 582.752 588.657 587.157 593.482 591.185L594.282 583.19Z" fill="#E9280E"/>
<path d="M557.484 451.397C558.644 455.924 560.064 460.386 561.737 464.764C566.583 476.918 574.453 483.982 579.077 494.91C583.701 505.837 579.077 521.7 583.641 535.955C588.206 550.21 595.764 557.345 595.764 567.356C595.764 577.367 591.674 605.214 591.674 605.214" stroke="#263238" stroke-linecap="round" stroke-linejoin="round"/>
<path d="M560.641 462.762L552.742 458.828" stroke="#263238" stroke-linecap="round" stroke-linejoin="round"/>
<path d="M559.248 456.953L561.263 451.538" stroke="#263238" stroke-linecap="round" stroke-linejoin="round"/>
<path d="M578.588 494.459C578.588 494.459 571.993 491.258 565.25 488.071" stroke="#263238" stroke-linecap="round" stroke-linejoin="round"/>
<path d="M574.097 486.267C576.041 480.457 578.598 474.85 581.729 469.53" stroke="#263238" stroke-linecap="round" stroke-linejoin="round"/>
<path d="M582.5 532.43C578.103 527.136 572.921 522.476 567.117 518.598" stroke="#263238" stroke-linecap="round" stroke-linejoin="round"/>
<path d="M584.753 538.408C585.808 534.154 587.23 529.99 589.006 525.958C591.54 520.614 591.97 519.909 591.97 519.909" stroke="#263238" stroke-linecap="round" stroke-linejoin="round"/>
<path d="M595.408 574.956C597.978 571.926 600.825 569.119 603.915 566.566C605.881 565.189 607.725 563.661 609.428 561.998" stroke="#263238" stroke-linecap="round" stroke-linejoin="round"/>
<path d="M595.764 567.356C593.647 564.106 591.274 561.014 588.665 558.106C586.096 555.438 583.301 552.977 580.307 550.746" stroke="#263238" stroke-linecap="round" stroke-linejoin="round"/>
<path d="M593.482 591.185C593.217 587.794 592.004 584.533 589.969 581.738C586.724 577.663 582.9 572.248 581.344 570.119" stroke="#263238" stroke-linecap="round" stroke-linejoin="round"/>
<path d="M137.337 391.021L130.846 373.382L137.337 380.869L132.239 354.404L140.123 373.382L142.909 336.313L147.548 371.606L152.646 364.556V373.382L158.678 361.468L155.432 382.195L160.99 378.67L152.187 390.133L137.337 391.021Z" fill="#E9280E"/>
<path d="M157.744 386.608H133.632L137.974 432.926H153.402L157.744 386.608Z" fill="#263238" stroke="#263238" stroke-linecap="round" stroke-linejoin="round"/>
<path d="M202.975 432.405H120.827V597.939H202.975V432.405Z" fill="white" stroke="#263238" stroke-linecap="round" stroke-linejoin="round"/>
<path d="M207.465 432.405H161.894V597.939H207.465V432.405Z" fill="white" stroke="#263238" stroke-linecap="round" stroke-linejoin="round"/>
<path d="M202.337 432.405H161.894V597.939H202.337V432.405Z" fill="#263238" stroke="#263238" stroke-linecap="round" stroke-linejoin="round"/>
<path d="M197.788 559.446H161.894V593.342H197.788V559.446Z" fill="#E9280E" stroke="#263238" stroke-linecap="round" stroke-linejoin="round"/>
<path d="M197.788 561.279H161.894V565.621H197.788V561.279Z" fill="white" stroke="#263238" stroke-linecap="round" stroke-linejoin="round"/>
<path d="M197.788 586.236H161.894V590.579H197.788V586.236Z" fill="white" stroke="#263238" stroke-linecap="round" stroke-linejoin="round"/>
<path d="M168.696 560.151V603.015" stroke="#263238" stroke-linecap="round" stroke-linejoin="round"/>
<path d="M181.219 560.151V603.015" stroke="#263238" stroke-linecap="round" stroke-linejoin="round"/>
<path d="M192.215 560.151V603.015" stroke="#263238" stroke-linecap="round" stroke-linejoin="round"/>
<path d="M197.788 438.552H161.894V488.396H197.788V438.552Z" fill="#E9280E" stroke="#263238" stroke-linecap="round" stroke-linejoin="round"/>
<path d="M197.788 440.639H161.894V445.574H197.788V440.639Z" fill="white" stroke="#263238" stroke-linecap="round" stroke-linejoin="round"/>
<path d="M197.788 472.59H161.894V477.525H197.788V472.59Z" fill="white" stroke="#263238" stroke-linecap="round" stroke-linejoin="round"/>
<path d="M168.696 439.342V488.057" stroke="#263238" stroke-linecap="round" stroke-linejoin="round"/>
<path d="M181.219 439.342V488.057" stroke="#263238" stroke-linecap="round" stroke-linejoin="round"/>
<path d="M192.215 439.342V488.057" stroke="#263238" stroke-linecap="round" stroke-linejoin="round"/>
<path d="M197.788 498.618H161.894V548.462H197.788V498.618Z" fill="#E9280E" stroke="#263238" stroke-linecap="round" stroke-linejoin="round"/>
<path d="M197.788 500.705H161.894V505.64H197.788V500.705Z" fill="white" stroke="#263238" stroke-linecap="round" stroke-linejoin="round"/>
<path d="M197.788 532.656H161.894V537.591H197.788V532.656Z" fill="white" stroke="#263238" stroke-linecap="round" stroke-linejoin="round"/>
<path d="M168.696 499.422V548.123" stroke="#263238" stroke-linecap="round" stroke-linejoin="round"/>
<path d="M181.219 499.422V548.123" stroke="#263238" stroke-linecap="round" stroke-linejoin="round"/>
<path d="M192.215 499.422V548.123" stroke="#263238" stroke-linecap="round" stroke-linejoin="round"/>
<path d="M202.96 487.705H161.894V493.373H202.96V487.705Z" fill="white" stroke="#263238" stroke-linecap="round" stroke-linejoin="round"/>
<path d="M202.96 548.152H161.894V553.82H202.96V548.152Z" fill="white" stroke="#263238" stroke-linecap="round" stroke-linejoin="round"/>
<path d="M202.96 432.405V597.925" stroke="#263238" stroke-linecap="round" stroke-linejoin="round"/>
<path d="M156.099 432.405V597.925H161.894V438.552H202.248V432.334L156.099 432.405Z" fill="white" stroke="#263238" stroke-linecap="round" stroke-linejoin="round"/>
<path d="M161.894 438.552V432.405" stroke="#263238" stroke-linecap="round" stroke-linejoin="round"/>
<path d="M202.649 356.363C198.336 348.453 196.528 342.785 196.528 341.474C196.528 338.879 202.456 337.328 202.456 337.328C211.704 332.675 255.2 339.401 274.778 342.503C285.737 344.321 296.823 345.358 307.945 345.605C307.945 345.605 310.657 343.547 313.873 340.952C317.089 338.358 332.353 321.297 338.341 319.802C344.328 318.308 349.752 321.875 349.752 321.875C349.752 321.875 359.548 327.515 357.903 328.601C356.258 329.686 332.353 349.285 326.366 352.909C320.379 356.533 307.885 354.982 297.008 357.054C287.641 358.831 249.702 361.031 241.003 361.707C234.47 363.182 227.613 362.638 221.426 360.156" fill="white"/>
<path d="M349.856 321.818C349.856 321.818 344.417 318.195 338.444 319.746C332.472 321.297 317.237 338.372 313.976 340.896C310.716 343.42 308.048 345.549 308.048 345.549C296.927 345.301 285.841 344.264 274.881 342.447C255.304 339.345 211.807 332.577 202.56 337.272C202.56 337.272 196.632 338.823 196.632 341.417C196.838 342.868 197.231 344.289 197.803 345.647L198.618 345.929C198.618 345.929 209.481 344.844 232.926 345.379C256.371 345.915 310.598 348.975 314.08 350.174C315.562 350.709 326.07 348.453 337.718 344.534C346.61 337.639 357.058 329.023 358.11 328.417C359.652 327.501 349.856 321.818 349.856 321.818Z" fill="#E9280E"/>
<path opacity="0.5" d="M349.856 321.818C349.856 321.818 344.417 318.195 338.444 319.746C332.472 321.297 317.237 338.372 313.976 340.896C310.716 343.42 308.048 345.549 308.048 345.549C296.927 345.301 285.841 344.264 274.881 342.447C255.304 339.345 211.807 332.577 202.56 337.272C202.56 337.272 196.632 338.823 196.632 341.417C196.838 342.868 197.231 344.289 197.803 345.647L198.618 345.929C198.618 345.929 209.481 344.844 232.926 345.379C256.371 345.915 310.598 348.975 314.08 350.174C315.562 350.709 326.07 348.453 337.718 344.534C346.61 337.639 357.058 329.023 358.11 328.417C359.652 327.501 349.856 321.818 349.856 321.818Z" fill="white"/>
<path d="M202.649 356.363C198.336 348.453 196.528 342.785 196.528 341.474C196.528 338.879 202.456 337.328 202.456 337.328C211.704 332.675 255.2 339.401 274.778 342.503C285.737 344.321 296.823 345.358 307.945 345.605C307.945 345.605 310.657 343.547 313.873 340.952C317.089 338.358 332.353 321.297 338.341 319.802C344.328 318.308 349.752 321.875 349.752 321.875C349.752 321.875 359.548 327.515 357.903 328.601C356.258 329.686 332.353 349.285 326.366 352.909C320.379 356.533 307.885 354.982 297.008 357.054C287.641 358.831 249.702 361.031 241.003 361.707C234.47 363.182 227.613 362.638 221.426 360.156" stroke="#263238" stroke-linecap="round" stroke-linejoin="round"/>
<path d="M417.405 402.358C418.389 400.581 419.864 399.094 421.672 398.058C423.479 397.022 425.55 396.475 427.661 396.478H526.51C526.51 396.478 533.653 396.478 531.519 409.394C529.385 422.309 500.071 501.17 492.987 525.014C485.903 548.857 484.406 599.109 484.406 599.109H365.846C365.846 599.109 375.242 478.935 417.405 402.358Z" fill="white"/>
<path opacity="0.16" d="M461.924 396.478H427.661C425.55 396.475 423.479 397.022 421.672 398.058C419.864 399.094 418.389 400.581 417.405 402.358C375.242 478.935 365.743 599.067 365.743 599.067H418.917L432.033 551.677L486.718 562.407C487.104 558.431 487.548 554.384 488.067 550.394L486.867 537.704C486.867 537.704 475.663 526.494 472.135 523.688C468.608 520.882 470.95 515.82 470.357 493.951C469.764 472.082 449.135 456.361 441.458 442.895C433.781 429.43 445.593 421.012 456.204 407.546C459.983 402.682 461.524 399.101 461.924 396.478Z" fill="black"/>
<path d="M417.405 402.358C418.389 400.581 419.864 399.094 421.672 398.058C423.479 397.022 425.55 396.475 427.661 396.478H526.51C526.51 396.478 533.653 396.478 531.519 409.394C529.385 422.309 500.071 501.17 492.987 525.014C485.903 548.857 484.406 599.109 484.406 599.109H365.846C365.846 599.109 375.242 478.935 417.405 402.358Z" stroke="#263238" stroke-linecap="round" stroke-linejoin="round"/>
<path d="M509.363 418.911C499.375 441.09 478.241 528.891 474.803 599.067H484.347C484.347 599.067 485.829 548.758 492.928 524.971C500.027 501.185 529.37 422.309 531.46 409.351C533.55 396.393 526.451 396.436 526.451 396.436C526.451 396.436 517.381 401.131 509.363 418.911Z" fill="#263238" stroke="#263238" stroke-linecap="round" stroke-linejoin="round"/>
<path d="M335.717 374.581C335.717 374.581 319.949 365.782 313.977 350.272C308.004 334.762 360.734 309.918 383.631 308.367C406.527 306.816 412.989 312.498 426.609 334.748C440.228 356.998 449.446 387.51 442.377 402.513C435.308 417.515 423.348 421.139 432.003 433.533C440.658 445.927 465.17 481.12 463.54 497.674C461.91 514.227 445.059 528.694 420.562 530.273C396.065 531.852 363.461 517.851 336.281 495.023C309.101 472.195 316.155 438.623 325.907 427.766C335.658 416.909 350.374 412.763 351.456 401.906C352.538 391.049 335.717 374.581 335.717 374.581Z" fill="#263238" stroke="#263238" stroke-linecap="round" stroke-linejoin="round"/>
<path d="M402.926 350.032C411.299 364.866 421.777 384.733 425.052 396.732C430.773 417.741 401.34 430.966 409.506 441.076" stroke="white" stroke-linecap="round" stroke-linejoin="round"/>
<path d="M391.515 330.603C391.515 330.603 394.775 335.89 399.28 343.673" stroke="white" stroke-linecap="round" stroke-linejoin="round"/>
<path d="M435.441 367.925C436.407 370.705 437.034 373.582 437.308 376.498" stroke="white" stroke-linecap="round" stroke-linejoin="round"/>
<path d="M397.176 322.89C397.176 322.89 422.933 340.994 433.218 362.666" stroke="white" stroke-linecap="round" stroke-linejoin="round"/>
<path d="M361.43 336.468C343.038 341.375 316.585 349.342 318.734 353.938" stroke="white" stroke-linecap="round" stroke-linejoin="round"/>
<path d="M378.429 332.154C378.429 332.154 374.501 333.084 368.647 334.579" stroke="white" stroke-linecap="round" stroke-linejoin="round"/>
<path d="M355.68 323.017C366.215 319.858 377.249 318.474 388.284 318.928" stroke="white" stroke-linecap="round" stroke-linejoin="round"/>
<path d="M348.181 325.936C349.847 325.11 351.57 324.394 353.338 323.792" stroke="white" stroke-linecap="round" stroke-linejoin="round"/>
<path d="M196.528 341.474C196.521 341.572 196.521 341.671 196.528 341.77C196.521 341.671 196.521 341.572 196.528 341.474V341.474ZM202.649 356.363C200.153 352.015 198.165 347.419 196.721 342.658C198.158 347.421 200.146 352.018 202.649 356.363V356.363ZM196.558 341.855C196.558 341.939 196.558 342.038 196.558 342.165C196.587 342.038 196.572 341.939 196.558 341.855V341.855ZM196.632 342.249C196.65 342.388 196.68 342.524 196.721 342.658C196.68 342.524 196.65 342.388 196.632 342.249ZM202.649 356.349C208.191 366.338 215.087 375.591 223.16 383.873C242.737 404.05 299.29 456.826 304.67 460.45C310.049 464.073 308.478 474.409 304.67 484.758C300.861 495.107 286.723 510.138 287.271 526.663C287.819 543.188 293.199 568.568 292.71 573.743C292.221 578.918 278.616 596.515 278.616 596.515H418.902C418.902 596.515 401.414 575.365 401.414 568.131C401.414 560.898 425.423 468.219 426.505 461.493C427.587 454.767 423.244 450.114 414.545 449.593C405.846 449.071 372.679 442.345 371.048 437.171C369.418 431.996 379.748 412.34 379.748 412.34L347.144 413.891C347.144 413.891 345.513 427.343 343.335 429.937C341.156 432.532 337.896 427.343 330.278 423.733C322.661 420.124 308.048 417.008 302.55 412.862C297.052 408.717 244.915 362.102 244.915 362.102" fill="white"/>
<path d="M310.879 416.852C313.591 421.364 316.303 425.439 316.303 425.439C316.303 425.439 325.447 430.332 327.729 430.332C330.012 430.332 343.735 437.382 343.735 437.382C343.735 437.382 355.176 434.661 351.145 425.411C349.873 423.043 348.268 420.852 346.373 418.897C345.691 423 344.595 428.372 343.305 429.909C341.127 432.489 337.866 427.315 330.249 423.705C325.314 421.364 317.326 419.221 310.879 416.852Z" fill="#E9280E"/>
<path d="M282.958 395.914C266.167 381.123 244.915 362.159 244.915 362.159L232.555 360.466L231.073 361.256C231.073 361.256 265.96 390.626 273.384 393.898C276.388 395.211 279.652 395.899 282.958 395.914Z" fill="#E9280E"/>
<path d="M300.55 411.226L299.216 410.099C299.897 411.17 300.283 411.847 300.283 411.847L300.55 411.226Z" fill="#E9280E"/>
<g opacity="0.5">
<path d="M310.879 416.852C313.591 421.364 316.303 425.439 316.303 425.439C316.303 425.439 325.447 430.332 327.729 430.332C330.012 430.332 343.735 437.382 343.735 437.382C343.735 437.382 355.176 434.661 351.145 425.411C349.873 423.043 348.268 420.852 346.373 418.897C345.691 423 344.595 428.372 343.305 429.909C341.127 432.489 337.866 427.315 330.249 423.705C325.314 421.364 317.326 419.221 310.879 416.852Z" fill="white"/>
<path d="M282.958 395.914C266.167 381.123 244.915 362.159 244.915 362.159L232.555 360.466L231.073 361.256C231.073 361.256 265.96 390.626 273.384 393.898C276.388 395.211 279.652 395.899 282.958 395.914Z" fill="white"/>
<path d="M300.55 411.226L299.216 410.099C299.897 411.17 300.283 411.847 300.283 411.847L300.55 411.226Z" fill="white"/>
</g>
<path d="M202.649 356.349C208.191 366.338 215.087 375.591 223.16 383.873C242.737 404.05 299.29 456.826 304.67 460.45C310.049 464.073 308.478 474.409 304.67 484.758C300.861 495.107 286.723 510.138 287.271 526.663C287.819 543.188 293.199 568.568 292.71 573.743C292.221 578.918 278.616 596.515 278.616 596.515H418.902C418.902 596.515 401.414 575.365 401.414 568.131C401.414 560.898 425.423 468.219 426.505 461.493C427.587 454.767 423.244 450.114 414.545 449.593C405.846 449.071 372.679 442.345 371.048 437.171C369.418 431.996 379.748 412.34 379.748 412.34L347.144 413.891C347.144 413.891 345.513 427.343 343.335 429.937C341.156 432.532 337.896 427.343 330.278 423.733C322.661 420.124 308.048 417.008 302.55 412.862C297.052 408.717 244.915 362.102 244.915 362.102M196.528 341.474C196.521 341.572 196.521 341.671 196.528 341.77C196.521 341.671 196.521 341.572 196.528 341.474V341.474ZM202.649 356.363C200.153 352.015 198.165 347.419 196.721 342.658C198.158 347.421 200.146 352.018 202.649 356.363V356.363ZM196.558 341.855C196.558 341.939 196.558 342.038 196.558 342.165C196.587 342.038 196.572 341.939 196.558 341.855V341.855ZM196.632 342.249C196.65 342.388 196.68 342.524 196.721 342.658C196.68 342.524 196.65 342.388 196.632 342.249Z" stroke="#263238" stroke-linecap="round" stroke-linejoin="round"/>
<path d="M244.915 362.158C244.915 362.158 227.546 362.469 217.854 354.869" stroke="#263238" stroke-linecap="round" stroke-linejoin="round"/>
<path d="M371.063 437.17C369.433 432.01 379.763 412.34 379.763 412.34L347.158 413.891C347.158 413.891 345.528 427.343 343.35 429.937C341.171 432.532 337.911 427.343 330.293 423.733C329.715 423.451 329.078 423.183 328.426 422.915L326.455 452.398C326.455 452.398 329.315 480.951 363.609 475.522C377.495 473.323 392.315 461.535 405.105 448.281C391.945 445.983 372.308 441.133 371.063 437.17Z" fill="white"/>
<path d="M370.144 416.246C370.144 416.246 368.173 426.765 366.587 438.397C365.002 450.03 363.831 458.687 363.831 458.687L371.063 437.17L379.214 414.371C379.214 414.371 371.33 414.371 370.144 416.246Z" fill="#E9280E"/>
<path opacity="0.5" d="M370.144 416.246C370.144 416.246 368.173 426.765 366.587 438.397C365.002 450.03 363.831 458.687 363.831 458.687L371.063 437.17L379.214 414.371C379.214 414.371 371.33 414.371 370.144 416.246Z" fill="white"/>
<path d="M371.063 437.17C369.433 432.01 379.763 412.34 379.763 412.34L347.158 413.891C347.158 413.891 345.528 427.343 343.35 429.937C341.171 432.532 337.911 427.343 330.293 423.733C329.715 423.451 329.078 423.183 328.426 422.915L326.455 452.398C326.455 452.398 329.315 480.951 363.609 475.522C377.495 473.323 392.315 461.535 405.105 448.281C391.945 445.983 372.308 441.133 371.063 437.17Z" stroke="#263238" stroke-linecap="round" stroke-linejoin="round"/>
<path d="M343.335 429.937C341.156 432.517 337.896 427.343 330.278 423.733C325.477 421.435 317.83 419.348 311.502 417.092C309.708 413.045 307.337 407.772 305.811 404.585C303.099 398.945 298.741 402.513 298.741 402.513C296.468 400.053 294.631 397.257 293.303 394.236C290.591 388.596 286.233 389.061 280.261 388.032C274.288 387.003 261.766 376.132 261.766 376.132C261.766 376.132 255.912 371.902 253.496 369.801C250.68 375.074 243.937 384.352 229.354 390.147C252.607 413.257 299.779 457.164 304.729 460.464C310.168 464.073 308.538 474.423 304.729 484.772C300.92 495.121 286.782 510.152 287.33 526.677C287.878 543.202 293.258 568.582 292.769 573.757C292.28 578.368 281.432 592.82 279.075 595.922L284.603 596.515H313.384C313.221 582.64 313.235 526.015 323.209 503.455C334.636 477.525 343.335 429.937 343.335 429.937Z" fill="#E9280E"/>
<path opacity="0.16" d="M330.279 423.733C325.477 421.435 317.83 419.348 311.502 417.092C309.708 413.045 307.337 407.772 305.811 404.585C303.099 398.945 298.742 402.513 298.742 402.513C296.468 400.053 294.631 397.257 293.303 394.236C290.591 388.596 286.233 389.061 280.261 388.032C274.289 387.003 261.766 376.132 261.766 376.132C261.766 376.132 255.912 371.902 253.496 369.801C252.291 372.04 250.856 374.16 249.213 376.132C258.935 383.957 269.665 392.248 273.414 393.898C280.824 397.155 282.558 394.433 288.234 397.705C293.91 400.976 300.238 411.805 300.238 411.805C300.238 411.805 303.677 403.091 306.537 409.083C309.397 415.076 316.259 425.397 316.259 425.397C316.259 425.397 325.403 430.29 327.685 430.29C329.478 430.29 338.267 434.632 342.001 436.508C342.831 432.376 343.29 429.895 343.29 429.895C341.156 432.517 337.896 427.343 330.279 423.733Z" fill="black"/>
<path d="M343.335 429.937C341.156 432.517 337.896 427.343 330.278 423.733C325.477 421.435 317.83 419.348 311.502 417.092C309.708 413.045 307.337 407.772 305.811 404.585C303.099 398.945 298.741 402.513 298.741 402.513C296.468 400.053 294.631 397.257 293.303 394.236C290.591 388.596 286.233 389.061 280.261 388.032C274.288 387.003 261.766 376.132 261.766 376.132C261.766 376.132 255.912 371.902 253.496 369.801C250.68 375.074 243.937 384.352 229.354 390.147C252.607 413.257 299.779 457.164 304.729 460.464C310.168 464.073 308.538 474.423 304.729 484.772C300.92 495.121 286.782 510.152 287.33 526.677C287.878 543.202 293.258 568.582 292.769 573.757C292.28 578.368 281.432 592.82 279.075 595.922L284.603 596.515H313.384C313.221 582.64 313.235 526.015 323.209 503.455C334.636 477.525 343.335 429.937 343.335 429.937Z" stroke="#263238" stroke-linecap="round" stroke-linejoin="round"/>
<path d="M343.72 428.132C343.72 428.132 336.962 426.158 332.798 429.627C328.633 433.096 322.424 450.89 318.763 470.193C316.507 481.43 318.064 493.058 323.209 503.398C323.209 503.398 331.76 482.065 334.354 471.673C336.947 461.281 343.72 428.132 343.72 428.132Z" fill="#E9280E"/>
<path opacity="0.16" d="M330.753 431.277C330.753 431.277 335.643 430.149 337.659 430.797C339.356 431.49 340.942 432.406 342.372 433.519L343.72 428.132C341.697 427.149 339.403 426.789 337.155 427.103C333.791 427.752 330.753 431.277 330.753 431.277Z" fill="black"/>
<path d="M343.72 428.132C343.72 428.132 336.962 426.158 332.798 429.627C328.633 433.096 322.424 450.89 318.763 470.193C316.507 481.43 318.064 493.058 323.209 503.398C323.209 503.398 331.76 482.065 334.354 471.673C336.947 461.281 343.72 428.132 343.72 428.132Z" stroke="#263238" stroke-linecap="round" stroke-linejoin="round"/>
<path d="M298.208 429.824L306.907 463.453L287.33 421.026" stroke="#263238" stroke-linecap="round" stroke-linejoin="round"/>
<path d="M355.517 596.515H418.917C418.917 596.515 401.429 575.365 401.429 568.131C401.429 560.898 425.438 468.219 426.52 461.493C427.601 454.767 423.259 450.114 414.56 449.593C405.86 449.071 372.693 442.345 371.063 437.17C371.063 437.17 358.555 479.076 354.213 507.529C350.478 531.937 354.346 582.584 355.517 596.515Z" fill="#E9280E"/>
<path opacity="0.16" d="M414.56 449.593C407.431 449.17 383.882 444.573 374.709 440.089L378.043 447.421C384.085 450.471 390.583 452.62 397.309 453.794C408.35 455.67 418.621 455.303 425.334 464.694L425.66 465.159C426.075 463.354 426.357 462.085 426.445 461.493C427.616 454.767 423.259 450.114 414.56 449.593Z" fill="black"/>
<path d="M355.517 596.515H418.917C418.917 596.515 401.429 575.365 401.429 568.131C401.429 560.898 425.438 468.219 426.52 461.493C427.601 454.767 423.259 450.114 414.56 449.593C405.86 449.071 372.693 442.345 371.063 437.17C371.063 437.17 358.555 479.076 354.213 507.529C350.478 531.937 354.346 582.584 355.517 596.515Z" stroke="#263238" stroke-linecap="round" stroke-linejoin="round"/>
<path d="M371.063 437.17C371.063 437.17 354.287 487.931 354.213 507.53C354.213 507.53 378.043 480.077 381.156 460.788C384.268 441.499 371.063 437.17 371.063 437.17Z" fill="#E9280E"/>
<path opacity="0.16" d="M368.173 443.656C370.694 443.576 373.197 444.081 375.467 445.128C377.737 446.174 379.704 447.731 381.2 449.663C381.2 449.663 377.91 440.456 371.063 437.17L368.173 443.656Z" fill="black"/>
<path d="M371.063 437.17C371.063 437.17 354.287 487.931 354.213 507.53C354.213 507.53 378.043 480.077 381.156 460.788C384.268 441.499 371.063 437.17 371.063 437.17Z" stroke="#263238" stroke-linecap="round" stroke-linejoin="round"/>
<path d="M550.163 586.969C550.163 586.969 562.449 587.448 570.496 588.548C575.862 589.24 581.265 589.65 586.679 589.775C586.679 589.775 582.233 581.23 577.491 578.819C572.748 576.408 564.153 572.093 556.95 573.052C549.748 574.011 539.448 580.92 540.307 583.12C541.167 585.319 545.005 586.306 550.163 586.969Z" fill="white"/>
<path d="M550.163 586.969C550.163 586.969 562.449 587.448 570.496 588.548C575.862 589.24 581.265 589.65 586.679 589.775C586.679 589.775 582.233 581.23 577.491 578.819C572.748 576.408 564.153 572.093 556.95 573.052C549.748 574.011 539.448 580.92 540.307 583.12C541.167 585.319 545.005 586.306 550.163 586.969Z" fill="#E9280E"/>
<path opacity="0.5" d="M550.163 586.969C550.163 586.969 562.449 587.448 570.496 588.548C575.862 589.24 581.265 589.65 586.679 589.775C586.679 589.775 582.233 581.23 577.491 578.819C572.748 576.408 564.153 572.093 556.95 573.052C549.748 574.011 539.448 580.92 540.307 583.12C541.167 585.319 545.005 586.306 550.163 586.969Z" fill="white"/>
<path d="M550.163 586.969C550.163 586.969 562.449 587.448 570.496 588.548C575.862 589.24 581.265 589.65 586.679 589.775C586.679 589.775 582.233 581.23 577.491 578.819C572.748 576.408 564.153 572.093 556.95 573.052C549.748 574.011 539.448 580.92 540.307 583.12C541.167 585.319 545.005 586.306 550.163 586.969Z" stroke="#263238" stroke-linecap="round" stroke-linejoin="round"/>
<path d="M570.57 583.472C570.57 583.472 580.307 578.664 582.737 578.735C585.168 578.805 601.321 589.197 600.521 590.86C599.978 591.632 599.193 592.222 598.278 592.545C597.363 592.869 596.364 592.911 595.423 592.665C593.63 591.862 582.752 587.462 582.752 587.462L575.638 589.056L570.57 583.472Z" fill="white"/>
<path d="M570.57 583.472C570.57 583.472 580.307 578.664 582.737 578.735C585.168 578.805 601.321 589.197 600.521 590.86C599.721 592.524 595.897 593.878 595.423 592.665C594.949 591.453 582.752 587.462 582.752 587.462L575.638 589.056L570.57 583.472Z" fill="#E9280E"/>
<path opacity="0.5" d="M570.57 583.472C570.57 583.472 580.307 578.664 582.737 578.735C585.168 578.805 601.321 589.197 600.521 590.86C599.721 592.524 595.897 593.878 595.423 592.665C594.949 591.453 582.752 587.462 582.752 587.462L575.638 589.056L570.57 583.472Z" fill="white"/>
<path d="M570.57 583.472C570.57 583.472 580.307 578.664 582.737 578.735C585.168 578.805 601.321 589.197 600.521 590.86C599.978 591.632 599.193 592.222 598.278 592.545C597.363 592.869 596.364 592.911 595.423 592.665C593.63 591.862 582.752 587.462 582.752 587.462L575.638 589.056L570.57 583.472Z" stroke="#263238" stroke-linecap="round" stroke-linejoin="round"/>
<path d="M563.619 575.562C563.619 575.562 576.602 575.167 579.18 576.408C581.759 577.649 593.408 596.656 591.659 598.037C589.91 599.419 585.079 599.01 585.227 597.473C585.375 595.937 574.497 585.756 574.497 585.756L566.035 583.994L563.619 575.562Z" fill="white"/>
<path d="M563.619 575.562C563.619 575.562 576.602 575.167 579.18 576.408C581.759 577.649 593.408 596.656 591.659 598.037C589.91 599.419 585.079 599.01 585.227 597.473C585.375 595.937 574.497 585.756 574.497 585.756L566.035 583.994L563.619 575.562Z" fill="#E9280E"/>
<path opacity="0.5" d="M563.619 575.562C563.619 575.562 576.602 575.167 579.18 576.408C581.759 577.649 593.408 596.656 591.659 598.037C589.91 599.419 585.079 599.01 585.227 597.473C585.375 595.937 574.497 585.756 574.497 585.756L566.035 583.994L563.619 575.562Z" fill="white"/>
<path d="M563.619 575.562C563.619 575.562 576.602 575.167 579.18 576.408C581.759 577.649 593.408 596.656 591.659 598.037C589.91 599.419 585.079 599.01 585.227 597.473C585.375 595.937 574.497 585.756 574.497 585.756L566.035 583.994L563.619 575.562Z" stroke="#263238" stroke-linecap="round" stroke-linejoin="round"/>
<path d="M555.928 573.01C555.928 573.01 569.073 572.601 571.682 573.87C574.29 575.139 586.087 594.357 584.308 595.767C582.53 597.177 577.669 596.74 577.817 595.189C577.965 593.638 566.954 583.331 566.954 583.331L558.388 581.54L555.928 573.01Z" fill="white"/>
<path d="M555.928 573.01C555.928 573.01 569.073 572.601 571.682 573.87C574.29 575.139 586.087 594.357 584.308 595.767C582.53 597.177 577.669 596.74 577.817 595.189C577.965 593.638 566.954 583.331 566.954 583.331L558.388 581.54L555.928 573.01Z" fill="#E9280E"/>
<path opacity="0.5" d="M555.928 573.01C555.928 573.01 569.073 572.601 571.682 573.87C574.29 575.139 586.087 594.357 584.308 595.767C582.53 597.177 577.669 596.74 577.817 595.189C577.965 593.638 566.954 583.331 566.954 583.331L558.388 581.54L555.928 573.01Z" fill="white"/>
<path d="M555.928 573.01C555.928 573.01 569.073 572.601 571.682 573.87C574.29 575.139 586.087 594.357 584.308 595.767C582.53 597.177 577.669 596.74 577.817 595.189C577.965 593.638 566.954 583.331 566.954 583.331L558.388 581.54L555.928 573.01Z" stroke="#263238" stroke-linecap="round" stroke-linejoin="round"/>
<path d="M406.468 501.354C415.982 515.299 435.085 550.633 440.658 554.609C449.357 560.813 507.511 575.872 513.113 579.989C518.715 584.107 518.329 588.238 523.635 589.747C528.94 591.255 548.829 595.584 556.417 596.261C564.005 596.938 560.611 592.468 560.611 592.468L547.673 584.008L558.951 581.357C558.951 581.357 570.259 594.301 572.378 595.006C574.497 595.711 578.232 595.006 577.995 593.413C577.58 590.861 565.516 569.978 561.233 569.09C556.95 568.202 530.956 571.628 530.956 571.628C530.956 571.628 476.433 536.646 475.455 535.405C475.455 535.405 472.195 526.607 469.527 522.983C466.86 519.359 465.17 520.403 465.17 520.403C465.17 520.403 466.267 515.736 464.637 514.185L455.937 505.908L455.626 506.303C454.144 503.483 452.662 500.268 451.032 496.602C446.482 486.408 430.373 457.799 427.661 453.668C425.63 450.58 408.617 448.366 399.992 447.435" fill="#E9280E"/>
<path opacity="0.16" d="M444.348 502.242C451.462 508.249 449.09 508.249 447.505 513.522C445.919 518.795 448.69 511.647 455.404 512.027C462.117 512.408 460.146 520.657 459.346 522.165C458.546 523.674 467.645 525.549 466.059 528.919C464.474 532.289 455.404 537.182 450.276 542.074C445.148 546.967 463.688 534.178 470.001 533.812C471.928 533.685 473.514 533.925 474.848 533.896C473.448 530.124 471.651 526.496 469.483 523.068C466.756 519.444 465.126 520.487 465.126 520.487C465.126 520.487 466.222 515.82 464.592 514.269L455.893 505.993L455.582 506.387C454.1 503.567 452.618 500.353 450.987 496.687C446.438 486.492 430.328 457.883 427.616 453.752C425.586 450.664 408.573 448.45 399.947 447.52L400.733 454.048L400.925 454.189C400.925 454.189 411.581 456.064 415.138 456.445C418.695 456.826 423.037 459.815 422.637 462.085C422.237 464.355 411.981 474.479 415.138 475.24C418.294 476.002 421.851 467.725 425.408 468.853C428.965 469.981 437.19 496.235 444.348 502.242Z" fill="black"/>
<path d="M406.468 501.354C415.982 515.299 435.085 550.633 440.658 554.609C449.357 560.813 507.511 575.872 513.113 579.989C518.715 584.107 518.329 588.238 523.635 589.747C528.94 591.255 548.829 595.584 556.417 596.261C564.005 596.938 560.611 592.468 560.611 592.468L547.673 584.008L558.951 581.357C558.951 581.357 570.259 594.301 572.378 595.006C574.497 595.711 578.232 595.006 577.995 593.413C577.58 590.861 565.516 569.978 561.233 569.09C556.95 568.202 530.956 571.628 530.956 571.628C530.956 571.628 476.433 536.646 475.455 535.405C475.455 535.405 472.195 526.607 469.527 522.983C466.86 519.359 465.17 520.403 465.17 520.403C465.17 520.403 466.267 515.736 464.637 514.185L455.937 505.908L455.626 506.303C454.144 503.483 452.662 500.268 451.032 496.602C446.482 486.408 430.373 457.799 427.661 453.668C425.63 450.58 408.617 448.366 399.992 447.435" stroke="#263238" stroke-linecap="round" stroke-linejoin="round"/>
<path d="M406.616 482.22C406.216 483.489 405.875 484.758 405.609 486.055" stroke="#263238" stroke-linecap="round" stroke-linejoin="round"/>
<path d="M421.021 458.885C416.364 463.935 412.437 469.554 409.343 475.593" stroke="#263238" stroke-linecap="round" stroke-linejoin="round"/>
<path d="M442.792 538.944C446.793 533.304 453.166 526.156 460.191 524.111" stroke="#263238" stroke-linecap="round" stroke-linejoin="round"/>
<path d="M438.361 545.882C438.361 545.882 439.072 544.556 440.347 542.554" stroke="#263238" stroke-linecap="round" stroke-linejoin="round"/>
<path d="M438.361 536.97C438.361 536.97 445.637 519.656 452.914 515.2C460.191 510.744 456.026 519.656 456.026 519.656" stroke="#263238" stroke-linecap="round" stroke-linejoin="round"/>
<path d="M513.113 580.004C518.73 584.135 518.329 588.252 523.635 589.761C528.941 591.269 548.829 595.598 556.417 596.275C564.005 596.952 560.611 592.482 560.611 592.482L547.673 584.022L558.951 581.371C558.951 581.371 570.259 594.315 572.378 595.02C574.497 595.725 578.528 595.979 577.995 593.427C576.957 588.492 565.516 569.992 561.233 569.104C556.95 568.216 530.956 571.642 530.956 571.642C530.956 571.642 481.294 539.212 475.855 535.701C454.766 537.633 444.733 548.138 440.51 554.44L440.658 554.553C449.357 560.813 507.511 575.872 513.113 580.004Z" fill="white"/>
<path d="M577.98 593.483C575.283 587.209 565.502 570.049 561.219 569.161C556.936 568.272 530.941 571.699 530.941 571.699C530.941 571.699 481.279 539.269 475.841 535.758C470.305 536.216 464.874 537.466 459.731 539.466C467.571 543.696 519.826 571.896 526.421 573.151C533.416 574.561 556.758 570.909 560.863 573.532C563.471 575.195 571.237 586.912 576.483 595.231C577.98 595.02 578.528 594.752 577.98 593.483Z" fill="#E9280E"/>
<path opacity="0.5" d="M577.98 593.483C573.771 584.501 565.502 570.049 561.219 569.161C556.936 568.272 530.941 571.699 530.941 571.699C530.941 571.699 481.279 539.269 475.841 535.758C470.305 536.216 464.874 537.466 459.731 539.466C467.571 543.696 519.826 571.896 526.421 573.151C533.416 574.561 556.758 570.909 560.863 573.532C563.471 575.195 571.237 586.912 576.483 595.231C577.98 595.02 578.573 594.738 577.98 593.483Z" fill="white"/>
<path d="M513.113 580.004C518.73 584.135 518.329 588.252 523.635 589.761C528.941 591.269 548.829 595.598 556.417 596.275C564.005 596.952 560.611 592.482 560.611 592.482L547.673 584.022L558.951 581.371C558.951 581.371 570.259 594.315 572.378 595.02C574.497 595.725 578.528 595.979 577.995 593.427C576.957 588.492 565.516 569.992 561.233 569.104C556.95 568.216 530.956 571.642 530.956 571.642C530.956 571.642 481.294 539.212 475.855 535.701C454.766 537.633 444.733 548.138 440.51 554.44L440.658 554.553C449.357 560.813 507.511 575.872 513.113 580.004Z" stroke="#263238" stroke-linecap="round" stroke-linejoin="round"/>
<path d="M382.134 333.789L337.496 351.513C336.955 358.977 335.012 366.288 331.76 373.1C326.485 383.717 329.567 403.81 334.636 414.653C339.704 425.496 362.038 421.252 370.204 419.898C375.742 418.896 381.166 417.389 386.402 415.4C388.786 416.274 391.364 416.557 393.895 416.221C396.425 415.886 398.824 414.943 400.866 413.483C400.866 413.483 376.976 349.68 382.134 333.789Z" fill="white"/>
<path d="M382.134 333.789L337.496 351.513C336.955 358.977 335.012 366.288 331.76 373.1C326.485 383.717 329.567 403.81 334.636 414.653C335.484 416.396 336.849 417.867 338.563 418.883V418.065C338.563 418.065 330.278 398.537 331.849 387.271C333.42 376.005 340.149 370.351 340.934 363.23C341.719 356.11 341.319 352.726 356.332 347.466C371.345 342.207 377.643 337.328 379.214 342.574C380.785 347.819 387.113 382.392 391.455 390.655C395.798 398.917 395.398 407.575 388.699 411.311C381.929 415.178 374.674 418.219 367.106 420.363L370.263 419.842C375.801 418.839 381.225 417.333 386.461 415.344C388.845 416.218 391.424 416.5 393.954 416.165C396.484 415.83 398.883 414.887 400.925 413.426C400.925 413.426 376.976 349.68 382.134 333.789Z" fill="#E9280E"/>
<path opacity="0.5" d="M382.134 333.789L337.496 351.513C336.955 358.977 335.012 366.288 331.76 373.1C326.485 383.717 329.567 403.81 334.636 414.653C335.484 416.396 336.849 417.867 338.563 418.883V418.065C338.563 418.065 330.278 398.537 331.849 387.271C333.42 376.005 340.149 370.351 340.934 363.23C341.719 356.11 341.319 352.726 356.332 347.466C371.345 342.207 377.643 337.328 379.214 342.574C380.785 347.819 387.113 382.392 391.455 390.655C395.798 398.917 395.398 407.575 388.699 411.311C381.929 415.178 374.674 418.219 367.106 420.363L370.263 419.842C375.801 418.839 381.225 417.333 386.461 415.344C388.845 416.218 391.424 416.5 393.954 416.165C396.484 415.83 398.883 414.887 400.925 413.426C400.925 413.426 376.976 349.68 382.134 333.789Z" fill="white"/>
<path d="M382.134 333.789L337.496 351.513C336.955 358.977 335.012 366.288 331.76 373.1C326.485 383.717 329.567 403.81 334.636 414.653C339.704 425.496 362.038 421.252 370.204 419.898C375.742 418.896 381.166 417.389 386.402 415.4C388.786 416.274 391.364 416.557 393.895 416.221C396.425 415.886 398.824 414.943 400.866 413.483C400.866 413.483 376.976 349.68 382.134 333.789Z" stroke="#263238" stroke-linecap="round" stroke-linejoin="round"/>
<path d="M359.578 361.58C359.699 364.077 359.373 366.576 358.614 368.969C357.429 371.789 346.24 382.871 346.581 384.07C346.921 385.268 347.929 389.118 349.915 389.484" stroke="#263238" stroke-linecap="round" stroke-linejoin="round"/>
<path d="M371.982 371.493C373.538 368.532 378.651 371.422 378.577 378.091" stroke="#263238" stroke-linecap="round" stroke-linejoin="round"/>
<path d="M346.64 362.779C346.64 362.779 350.997 360.96 354.895 367.672" stroke="#263238" stroke-linecap="round" stroke-linejoin="round"/>
<path d="M365.787 381.264C370.822 381.505 375.609 383.416 379.318 386.664" stroke="#263238" stroke-width="0.5" stroke-linecap="round" stroke-linejoin="round"/>
<path d="M341.379 372.451C343.982 372.782 346.525 373.451 348.937 374.44" stroke="#263238" stroke-width="0.5" stroke-linecap="round" stroke-linejoin="round"/>
<path d="M359.089 355.32C357.938 354.741 356.661 354.424 355.36 354.395C354.059 354.366 352.768 354.624 351.59 355.151C347.603 356.97 345.158 358.972 345.425 356.645C345.691 354.319 350.374 351.753 351.782 351.414C353.19 351.076 359.489 350.145 359.089 355.32Z" fill="#263238"/>
<path d="M370.263 350.061C374.417 353.259 377.718 357.346 379.896 361.989C382.86 369.039 385.201 361.341 382.86 356.73C380.518 352.119 373.746 347.213 370.263 350.061Z" fill="#263238"/>
<path d="M401.518 425.538C401.518 428.823 399.562 431.488 397.161 431.488C394.76 431.488 392.819 428.823 392.819 425.538C392.819 422.253 394.76 413.891 397.161 413.891C399.562 413.891 401.518 422.253 401.518 425.538Z" fill="#E9280E" stroke="#263238" stroke-linecap="round" stroke-linejoin="round"/>
<path d="M372.367 370.21C372.197 370.641 372.063 371.084 371.967 371.535C371.537 373.622 371.108 377.979 371.967 378.162C372.827 378.345 374.931 374.27 375.302 372.184C375.385 371.774 375.435 371.359 375.45 370.943C374.438 370.641 373.409 370.396 372.367 370.21Z" fill="#263238"/>
<path d="M347.084 362.37C346.953 362.739 346.849 363.115 346.773 363.498C346.329 365.585 346.343 370.167 347.277 370.336C348.211 370.506 349.737 366.219 350.167 364.133C350.274 363.626 350.334 363.112 350.345 362.596C349.284 362.318 348.176 362.241 347.084 362.37V362.37Z" fill="#263238"/>
<path d="M371.982 371.563L373.464 368.941C375.814 369.376 377.942 370.548 379.51 372.268" stroke="#263238" stroke-width="0.75" stroke-linecap="round" stroke-linejoin="round"/>
<path d="M347.084 362.37L348.566 360.72C348.566 360.72 349.204 360.424 352.701 361.933" stroke="#263238" stroke-width="0.75" stroke-linecap="round" stroke-linejoin="round"/>
<path d="M341.468 400.609C341.468 400.609 343.957 396.252 347.292 396.252C350.626 396.252 353.116 403.373 353.116 403.373" stroke="#263238" stroke-linecap="round" stroke-linejoin="round"/>
<path d="M234.156 588.506C230.934 588.353 227.768 587.636 224.819 586.391C224.408 586.246 224.032 586.023 223.714 585.736C223.397 585.449 223.144 585.103 222.971 584.72C222.798 584.336 222.709 583.924 222.709 583.506C222.709 583.089 222.799 582.677 222.972 582.294C223.145 581.91 223.398 581.565 223.716 581.278C224.035 580.991 224.411 580.768 224.822 580.624C225.233 580.48 225.671 580.416 226.109 580.438C226.547 580.46 226.975 580.566 227.368 580.751C230.332 581.949 234.171 582.697 235.193 582.274C237.076 580.271 239.965 568.174 236.231 562.336C235.386 561.039 234.601 560.799 234.082 560.743C231.963 560.461 228.821 562.534 227.709 563.563C227.4 563.841 227.036 564.058 226.638 564.202C226.241 564.346 225.817 564.414 225.392 564.402C224.967 564.39 224.548 564.299 224.16 564.133C223.772 563.967 223.422 563.73 223.13 563.436C222.838 563.142 222.61 562.795 222.459 562.417C222.307 562.039 222.236 561.636 222.248 561.231C222.261 560.827 222.357 560.428 222.531 560.059C222.705 559.69 222.954 559.357 223.263 559.079C223.841 558.543 229.191 553.961 234.897 554.694C236.312 554.891 237.661 555.395 238.838 556.168C240.015 556.94 240.989 557.961 241.685 559.15C247.183 567.68 243.418 583.909 239.195 587.124C237.727 588.112 235.951 588.599 234.156 588.506V588.506Z" fill="white"/>
<path d="M238.498 561.406C238.11 560.53 237.501 559.758 236.726 559.158C235.951 558.558 235.033 558.149 234.052 557.965C230.347 557.401 226.865 560.94 226.479 561.335C226.125 561.741 225.906 562.238 225.851 562.763C225.795 563.288 225.906 563.817 226.168 564.282C226.751 564.171 227.29 563.907 227.724 563.521C228.836 562.534 231.978 560.461 234.097 560.701C234.615 560.701 235.401 560.997 236.246 562.294C239.98 568.075 237.09 580.229 235.208 582.231C234.186 582.654 230.362 581.907 227.383 580.708C227.017 580.562 226.625 580.481 226.227 580.469C226.254 580.855 226.382 581.229 226.6 581.557C226.817 581.884 227.117 582.155 227.472 582.344C229.346 583.296 231.413 583.854 233.534 583.98C234.743 584.035 235.929 583.641 236.838 582.88C239.625 580.441 242.085 567.962 238.498 561.406Z" fill="#E9280E"/>
<path opacity="0.5" d="M238.498 561.406C238.11 560.53 237.501 559.758 236.726 559.158C235.951 558.558 235.033 558.149 234.052 557.965C230.347 557.401 226.865 560.94 226.479 561.335C226.125 561.741 225.906 562.238 225.851 562.763C225.795 563.288 225.906 563.817 226.168 564.282C226.751 564.171 227.29 563.907 227.724 563.521C228.836 562.534 231.978 560.461 234.097 560.701C234.615 560.701 235.401 560.997 236.246 562.294C239.98 568.075 237.09 580.229 235.208 582.231C234.186 582.654 230.362 581.907 227.383 580.708C227.017 580.562 226.625 580.481 226.227 580.469C226.254 580.855 226.382 581.229 226.6 581.557C226.817 581.884 227.117 582.155 227.472 582.344C229.346 583.296 231.413 583.854 233.534 583.98C234.743 584.035 235.929 583.641 236.838 582.88C239.625 580.441 242.085 567.962 238.498 561.406Z" fill="white"/>
<path d="M234.156 588.506C230.934 588.353 227.768 587.636 224.819 586.391C224.408 586.246 224.032 586.023 223.714 585.736C223.397 585.449 223.144 585.103 222.971 584.72C222.798 584.336 222.709 583.924 222.709 583.506C222.709 583.089 222.799 582.677 222.972 582.294C223.145 581.91 223.398 581.565 223.716 581.278C224.035 580.991 224.411 580.768 224.822 580.624C225.233 580.48 225.671 580.416 226.109 580.438C226.547 580.46 226.975 580.566 227.368 580.751C230.332 581.949 234.171 582.697 235.193 582.274C237.076 580.271 239.965 568.174 236.231 562.336C235.386 561.039 234.601 560.799 234.082 560.743C231.963 560.461 228.821 562.534 227.709 563.563C227.4 563.841 227.036 564.058 226.638 564.202C226.241 564.346 225.817 564.414 225.392 564.402C224.967 564.39 224.548 564.299 224.16 564.133C223.772 563.967 223.422 563.73 223.13 563.436C222.838 563.142 222.61 562.795 222.459 562.417C222.307 562.039 222.236 561.636 222.248 561.231C222.261 560.827 222.357 560.428 222.531 560.059C222.705 559.69 222.954 559.357 223.263 559.079C223.841 558.543 229.191 553.961 234.897 554.694C236.312 554.891 237.661 555.395 238.838 556.168C240.015 556.94 240.989 557.961 241.685 559.15C247.183 567.68 243.418 583.909 239.195 587.124C237.727 588.112 235.951 588.599 234.156 588.506V588.506Z" stroke="#263238" stroke-linecap="round" stroke-linejoin="round"/>
<path d="M228.495 552.128H192.853V597.135H228.495V552.128Z" fill="white"/>
<path d="M207.45 552.128H192.853V597.135H207.45V552.128Z" fill="#E9280E"/>
<path opacity="0.5" d="M207.45 552.128H192.853V597.135H207.45V552.128Z" fill="white"/>
<path d="M228.495 552.128H192.853V597.135H228.495V552.128Z" stroke="#263238" stroke-linecap="round" stroke-linejoin="round"/>
<path d="M424.356 596.515H272.095L267.131 516.878C266.993 516.106 267.034 515.314 267.249 514.559C267.464 513.803 267.85 513.1 268.378 512.5C268.906 511.899 269.565 511.415 270.309 511.08C271.053 510.746 271.865 510.568 272.688 510.561H423.704C424.532 510.56 425.35 510.731 426.102 511.063C426.853 511.394 427.519 511.877 428.054 512.478C428.589 513.08 428.979 513.785 429.198 514.545C429.417 515.305 429.459 516.101 429.321 516.878L424.356 596.515Z" fill="#263238" stroke="#263238" stroke-linecap="round" stroke-linejoin="round"/>
<path d="M279.594 512.465H422.607C423.415 512.457 424.215 512.617 424.951 512.934C425.687 513.251 426.341 513.718 426.868 514.3C427.394 514.883 427.781 515.569 427.999 516.309C428.218 517.049 428.265 517.825 428.135 518.584" stroke="white" stroke-linecap="round" stroke-linejoin="round"/>
<path d="M268.242 517.329C268.361 515.996 269.004 514.756 270.043 513.854C271.081 512.952 272.438 512.456 273.844 512.465" stroke="white" stroke-linecap="round" stroke-linejoin="round"/>
<path d="M424.993 588.76H271.458V596.515H424.993V588.76Z" fill="white" stroke="#263238" stroke-linecap="round" stroke-linejoin="round"/>
<path d="M347.677 560.052C353.685 560.052 358.555 557.274 358.555 553.848C358.555 550.422 353.685 547.644 347.677 547.644C341.67 547.644 336.799 550.422 336.799 553.848C336.799 557.274 341.67 560.052 347.677 560.052Z" fill="white" stroke="#263238" stroke-linecap="round" stroke-linejoin="round"/>
<path d="M656.57 595.598H84.726V608.81H656.57V595.598Z" fill="#263238"/>
<path d="M508.296 105.75H233.193C223.919 105.75 216.402 112.902 216.402 121.725V271.904C216.402 280.727 223.919 287.88 233.193 287.88H508.296C517.57 287.88 525.087 280.727 525.087 271.904V121.725C525.087 112.902 517.57 105.75 508.296 105.75Z" fill="#E9280E"/>
<path d="M378.004 210.415C402.958 206.599 419.937 184.259 415.926 160.517C411.916 136.774 388.435 120.621 363.48 124.436C338.526 128.252 321.547 150.592 325.558 174.334C329.568 198.076 353.049 214.23 378.004 210.415Z" fill="#263238"/>
<path d="M370.396 175.474L355.146 194.101C354.628 194.876 353.915 195.516 353.072 195.964C352.228 196.412 351.281 196.654 350.315 196.667C348.99 196.684 347.712 196.203 346.758 195.327C346.274 194.904 345.89 194.387 345.635 193.81C345.379 193.233 345.257 192.611 345.276 191.986C345.324 190.585 345.844 189.235 346.758 188.136L364.142 167.677L347.84 147.204C347.083 146.243 346.667 145.077 346.655 143.876C346.651 143.16 346.803 142.451 347.101 141.793C347.4 141.136 347.838 140.544 348.389 140.055C348.906 139.542 349.527 139.133 350.215 138.854C350.902 138.576 351.642 138.433 352.39 138.434C353.347 138.449 354.286 138.691 355.119 139.139C355.953 139.588 356.655 140.227 357.162 141L371.893 159.457L386.713 141.31C387.243 140.464 387.984 139.754 388.871 139.245C389.757 138.736 390.762 138.443 391.796 138.391C392.438 138.39 393.074 138.514 393.663 138.757C394.252 139 394.782 139.355 395.22 139.801C395.687 140.22 396.059 140.725 396.314 141.285C396.569 141.845 396.701 142.448 396.702 143.059C396.686 144.151 396.29 145.207 395.575 146.062L378.132 167.296L394.983 188.446C395.779 189.392 396.222 190.563 396.242 191.774C396.247 192.475 396.092 193.168 395.787 193.806C395.483 194.443 395.036 195.011 394.479 195.468C393.391 196.463 391.941 197.019 390.433 197.019C389.471 197.008 388.527 196.767 387.688 196.319C386.849 195.87 386.142 195.229 385.631 194.453L370.396 175.474Z" fill="white"/>
<path d="M476.404 278.926H494.529" stroke="white" stroke-width="3" stroke-linecap="round" stroke-linejoin="round"/>
<path d="M225.012 151.956V266.49C225.012 269.807 226.397 272.988 228.862 275.334C231.327 277.679 234.671 278.997 238.157 278.997H459.198" stroke="white" stroke-width="3" stroke-linecap="round" stroke-linejoin="round"/>
<path d="M225.012 121.584V138.758" stroke="white" stroke-width="3" stroke-linecap="round" stroke-linejoin="round"/>
</svg>
