<svg width="637" height="594" viewBox="0 0 637 594" fill="none" xmlns="http://www.w3.org/2000/svg">
<path d="M213 85.3992C213 85.3992 116.469 131.234 68.3246 201.861C20.1802 272.489 23.9894 363.351 82.4915 430.796C140.994 498.241 252.813 489.383 346.439 532.107C440.065 574.83 543.361 566.031 587.633 475.514C631.904 384.997 565.146 351.168 553.68 246.413C542.214 141.659 440.893 -11.7317 213 85.3992Z" fill="#407BFF"/>
<path opacity="0.7" d="M213 85.3992C213 85.3992 116.469 131.234 68.3246 201.861C20.1802 272.489 23.9894 363.351 82.4915 430.796C140.994 498.241 252.813 489.383 346.439 532.107C440.065 574.83 543.361 566.031 587.633 475.514C631.904 384.997 565.146 351.168 553.68 246.413C542.214 141.659 440.893 -11.7317 213 85.3992Z" fill="white"/>
<path d="M157.339 449.415C161.161 448.227 167.939 442.421 167.939 442.409C167.939 442.397 162.486 439.452 162.117 439.31C157.823 437.624 148.459 436.721 145.058 440.414C144.52 441.042 144.128 441.769 143.909 442.546C143.69 443.323 143.647 444.135 143.784 444.929C143.92 445.723 144.234 446.481 144.703 447.155C145.173 447.83 145.788 448.405 146.51 448.845C149.517 450.84 154.027 450.412 157.339 449.415Z" fill="#9C9C9C"/>
<path d="M227.931 393.44C228.021 393.44 225.129 388.179 224.899 387.859C222.351 384.297 215.038 378.68 210.019 380.01C209.191 380.253 208.428 380.655 207.778 381.19C207.127 381.726 206.605 382.382 206.245 383.118C205.885 383.853 205.694 384.651 205.686 385.46C205.678 386.268 205.852 387.07 206.197 387.811C207.56 390.994 211.573 392.965 214.937 393.832C218.886 394.853 227.919 393.452 227.931 393.44Z" fill="#9C9C9C"/>
<path d="M177.328 465.932C180.615 463.925 185.15 457.216 185.507 456.682C189.619 459.107 193.901 461.273 198.324 463.165C200.872 464.281 203.522 465.338 206.171 466.359C204.897 466.05 203.738 465.801 203.623 465.777C198.999 465.207 189.711 466.644 187.482 471.038C187.132 471.78 186.955 472.582 186.961 473.393C186.967 474.203 187.157 475.004 187.518 475.741C187.879 476.479 188.402 477.137 189.055 477.673C189.707 478.209 190.474 478.61 191.304 478.851C194.769 480.038 198.948 478.483 201.916 476.702C204.885 474.921 208.86 469.233 209.892 467.725L212.949 468.912C217.854 470.729 222.746 472.474 227.498 474.422C229.167 475.087 230.785 475.811 232.416 476.512C231.269 476.25 230.314 476.037 230.161 476.025C225.536 475.455 216.262 476.892 214.019 481.285C213.67 482.026 213.493 482.828 213.499 483.638C213.505 484.448 213.695 485.247 214.056 485.984C214.417 486.72 214.94 487.377 215.593 487.912C216.245 488.447 217.011 488.847 217.841 489.086C221.319 490.274 225.549 488.718 228.454 486.937C231.358 485.156 235.002 480.026 236.251 478.245C237.881 479.017 239.525 479.789 241.079 480.62C242.124 481.202 243.181 481.689 244.2 482.33L247.232 484.147C249.105 485.334 251.054 486.617 252.864 487.852C254.138 488.706 255.31 489.538 256.507 490.369C254.851 489.692 251.577 488.41 251.284 488.338C246.812 487.151 237.397 487.234 234.48 491.259C234.012 491.941 233.704 492.706 233.576 493.506C233.448 494.306 233.502 495.122 233.735 495.901C233.969 496.68 234.376 497.404 234.93 498.026C235.484 498.649 236.173 499.155 236.951 499.512C240.187 501.139 244.595 500.236 247.793 498.883C251.271 497.398 256.711 491.663 257.323 490.939C259.297 492.328 261.208 493.694 262.979 495.012C268.152 498.823 272.458 502.255 275.719 504.938L278.267 502.777C274.853 500.094 270.292 496.603 264.801 492.732C262.801 491.319 260.635 489.835 258.431 488.338C259.607 486.144 260.645 483.888 261.539 481.582C265.451 481.95 272.814 480.062 273.77 479.813C274.598 481.986 275.375 484.111 276.076 486.118C278.089 491.853 279.63 496.805 280.764 500.735L283.618 498.36C282.433 494.691 280.904 490.214 279.006 485.168C278.178 482.959 277.248 480.62 276.254 478.222C277.133 477.758 284.217 473.911 286.446 471.014C288.472 468.378 290.268 464.495 289.173 461.206C288.941 460.428 288.538 459.704 287.987 459.08C287.437 458.457 286.753 457.948 285.978 457.587C285.204 457.225 284.356 457.019 283.491 456.982C282.626 456.945 281.762 457.077 280.955 457.37C276.152 459.282 274.241 467.867 274.662 472.189C274.662 472.451 275.299 475.194 275.706 476.939C275.299 475.954 274.917 475.004 274.432 474.006C273.592 472.011 272.687 470.052 271.731 467.938C271.222 466.929 270.725 465.92 270.203 464.899C269.68 463.878 269.069 462.844 268.496 461.8C267.132 459.425 265.616 457.05 264.024 454.675C265.897 453.986 272.483 451.445 274.929 449.118C277.375 446.791 279.77 443.181 279.21 439.82C279.111 439.018 278.833 438.244 278.392 437.549C277.951 436.853 277.357 436.253 276.651 435.785C275.944 435.318 275.139 434.995 274.29 434.837C273.44 434.679 272.564 434.69 271.719 434.869C266.623 436.056 263.374 444.297 263.094 448.631C263.094 448.892 263.247 452.027 263.374 453.749C262.406 452.348 261.45 450.947 260.431 449.557C257.475 445.556 254.341 441.59 251.246 437.624C250.29 436.436 249.36 435.189 248.43 433.966C249.093 433.729 256.991 430.867 259.73 428.267C262.164 425.892 264.572 422.33 264.024 418.957C263.924 418.155 263.643 417.38 263.201 416.685C262.759 415.99 262.164 415.389 261.457 414.922C260.749 414.455 259.943 414.132 259.093 413.974C258.242 413.816 257.366 413.827 256.52 414.006C251.424 415.193 248.175 423.434 247.895 427.768C247.895 428.101 248.124 432.601 248.252 433.705C246.188 431.01 244.162 428.314 242.277 425.583C239.706 421.91 237.399 418.082 235.372 414.125C235.677 414.018 243.933 411.061 246.736 408.389C249.169 406.015 251.577 402.452 251.029 399.092C250.931 398.289 250.652 397.515 250.211 396.82C249.77 396.125 249.177 395.524 248.47 395.057C247.763 394.59 246.958 394.267 246.109 394.109C245.259 393.951 244.383 393.962 243.538 394.14C238.442 395.328 235.193 403.568 234.913 407.903C234.913 408.188 235.079 411.619 235.206 413.246L234.926 413.317C232.987 409.287 231.444 405.102 230.314 400.814C229.664 398.439 229.18 396.171 228.759 393.95C230.352 393.547 237.677 391.635 240.455 389.486C243.232 387.336 245.958 384.107 245.818 380.675C245.811 379.867 245.622 379.07 245.263 378.334C244.905 377.598 244.384 376.941 243.736 376.405C243.087 375.869 242.325 375.466 241.499 375.222C240.672 374.977 239.8 374.897 238.939 374.987C233.779 375.664 229.537 383.501 228.747 387.788C228.747 388.013 228.543 390.424 228.454 392.181C228.288 391.172 228.084 390.139 227.944 389.165C227.396 385.52 227.129 382.159 226.912 379.179C226.81 377.481 226.759 375.937 226.721 374.5C228.059 373.313 233.435 368.563 234.836 365.559C236.238 362.555 237.066 358.435 235.244 355.442C234.841 354.726 234.28 354.097 233.598 353.597C232.917 353.096 232.13 352.735 231.288 352.537C230.447 352.338 229.57 352.307 228.715 352.446C227.86 352.584 227.046 352.889 226.326 353.341C222.071 356.167 222.186 364.942 223.6 369.086C223.727 369.442 226.313 374.833 226.39 374.774L226.466 374.702C226.466 376.08 226.466 377.564 226.568 379.191C226.708 382.183 226.887 385.567 227.358 389.236C227.818 393.19 228.524 397.115 229.473 400.992C230.513 405.344 231.971 409.6 233.83 413.709L233.906 413.852C232.913 412.771 230.021 409.838 229.766 409.636C226.25 406.786 217.65 403.212 213.204 405.73C212.474 406.166 211.851 406.74 211.375 407.416C210.9 408.092 210.583 408.854 210.444 409.652C210.306 410.449 210.35 411.266 210.573 412.047C210.796 412.827 211.193 413.556 211.739 414.184C213.956 416.927 218.376 417.841 221.867 417.853C225.791 417.853 233.537 414.588 234.161 414.291C236.156 418.43 238.446 422.441 241.015 426.296C242.493 428.54 244.06 430.772 245.665 432.981C244.774 432.078 243.971 431.271 243.844 431.164C240.327 428.326 231.728 424.74 227.282 427.257C226.552 427.694 225.929 428.268 225.453 428.944C224.977 429.62 224.66 430.382 224.522 431.18C224.384 431.977 224.428 432.793 224.651 433.574C224.874 434.355 225.271 435.084 225.817 435.712C228.021 438.467 232.454 439.369 235.945 439.381C239.436 439.393 246.137 436.721 247.895 435.997C248.519 436.84 249.169 437.695 249.768 438.538C252.774 442.563 255.794 446.589 258.686 450.602C259.692 452.027 260.622 453.452 261.552 454.877C260.762 454.069 260.087 453.404 259.972 453.309C256.456 450.46 247.857 446.886 243.41 449.403C242.681 449.84 242.059 450.415 241.585 451.092C241.111 451.768 240.795 452.53 240.658 453.328C240.521 454.125 240.566 454.941 240.79 455.722C241.014 456.502 241.412 457.23 241.958 457.857C244.162 460.6 248.596 461.515 252.074 461.526C255.552 461.538 261.629 459.152 263.718 458.273C264.635 459.757 265.553 461.241 266.355 462.726C266.89 463.747 267.476 464.697 267.935 465.754C268.394 466.81 268.916 467.82 269.387 468.829C270.241 470.824 271.12 472.866 271.935 474.826C272.483 476.179 272.98 477.485 273.477 478.792C272.509 477.367 270.521 474.624 270.33 474.41C267.554 471.586 264.044 469.475 260.138 468.283C259.848 467.953 259.524 467.651 259.17 467.38C258.518 466.849 257.753 466.451 256.925 466.213C256.097 465.974 255.225 465.901 254.365 465.997C253.505 466.093 252.676 466.357 251.932 466.772C251.188 467.186 250.547 467.741 250.048 468.402C247.169 472.463 250.66 480.608 253.577 484.004C253.743 484.206 255.87 486.177 257.233 487.4L254.354 485.655C252.481 484.467 250.532 483.28 248.519 481.986L245.449 480.228C244.43 479.623 243.283 479.1 242.187 478.53C239.639 477.248 236.977 476.06 234.276 474.968C235.422 473.436 239.372 467.938 240.073 464.732C240.773 461.526 240.608 457.323 238.149 454.77C237.59 454.152 236.898 453.651 236.118 453.299C235.338 452.947 234.488 452.751 233.621 452.726C232.755 452.7 231.893 452.844 231.09 453.149C230.288 453.455 229.563 453.914 228.963 454.497C225.46 458.059 227.587 466.644 229.906 470.408C230.059 470.646 232.046 473.163 233.18 474.529C231.55 473.864 229.919 473.187 228.25 472.558C223.409 470.741 218.453 468.995 213.522 467.321C212.006 466.799 210.503 466.252 209 465.718C209.42 465.184 214.312 458.736 215.051 455.15C215.714 451.968 215.599 447.74 213.127 445.188C212.569 444.57 211.877 444.069 211.097 443.716C210.317 443.364 209.466 443.169 208.6 443.143C207.734 443.117 206.871 443.262 206.069 443.567C205.266 443.872 204.542 444.331 203.942 444.914C200.438 448.477 202.566 457.062 204.897 460.826C205.063 461.111 207.942 464.732 208.719 465.576C205.407 464.388 202.12 463.201 198.922 461.883C194.606 460.14 190.418 458.133 186.386 455.874C186.577 455.625 191.724 448.916 192.476 445.247C193.126 442.065 193.011 437.837 190.552 435.284C189.994 434.667 189.302 434.166 188.522 433.813C187.742 433.461 186.891 433.266 186.025 433.24C185.158 433.214 184.296 433.359 183.494 433.664C182.691 433.969 181.966 434.428 181.367 435.011C177.863 438.574 179.991 447.159 182.309 450.923C182.462 451.172 184.654 453.939 185.736 455.233L185.533 455.435C181.536 453.065 177.776 450.367 174.296 447.372C172.347 445.746 170.589 444.095 168.92 442.445C170.015 441.257 174.958 435.949 176.041 432.708C177.124 429.466 177.443 425.393 175.302 422.615C174.817 421.945 174.185 421.378 173.45 420.951C172.714 420.523 171.89 420.244 171.031 420.132C170.173 420.02 169.298 420.078 168.465 420.301C167.631 420.524 166.858 420.908 166.193 421.427C162.295 424.657 163.403 433.373 165.263 437.351C165.365 437.564 166.665 439.654 167.633 441.162C166.894 440.414 166.117 439.654 165.416 438.918C162.868 436.163 160.588 433.491 158.651 431.105C157.556 429.739 156.6 428.492 155.708 427.317C156.154 425.654 157.836 418.946 157.199 415.68C156.562 412.415 154.829 408.556 151.542 407.036C150.784 406.647 149.946 406.411 149.083 406.344C148.22 406.277 147.351 406.381 146.534 406.647C145.717 406.914 144.969 407.338 144.339 407.892C143.71 408.446 143.212 409.117 142.879 409.862C141.006 414.398 146.293 421.653 149.912 424.384C150.23 424.621 155.581 427.78 155.606 427.697C155.609 427.661 155.609 427.626 155.606 427.59C156.434 428.777 157.339 429.965 158.346 431.295C160.231 433.67 162.397 436.448 164.958 439.262C167.685 442.325 170.599 445.239 173.684 447.99C177.131 451.061 180.861 453.842 184.832 456.302L184.985 456.385C183.52 455.993 179.366 455.031 179.035 454.996C174.411 454.426 165.136 455.862 162.894 460.256C162.544 460.998 162.367 461.801 162.373 462.611C162.379 463.422 162.569 464.222 162.93 464.959C163.29 465.697 163.814 466.355 164.466 466.891C165.119 467.427 165.885 467.828 166.716 468.069C170.194 469.233 174.423 467.725 177.328 465.932Z" fill="#9C9C9C"/>
<path d="M415.681 164.707C418.407 168.958 428.23 175.192 428.242 175.192C428.255 175.192 430.688 167.913 430.79 167.426C431.835 161.881 430.357 150.577 424.42 147.632C423.412 147.168 422.309 146.907 421.185 146.867C420.061 146.826 418.94 147.007 417.896 147.396C416.852 147.786 415.907 148.377 415.124 149.129C414.34 149.882 413.736 150.779 413.349 151.764C411.502 155.896 413.362 161.097 415.681 164.707Z" fill="#9C9C9C"/>
<path d="M512.008 231.844C512.008 231.951 518.378 227.023 518.722 226.667C522.888 222.57 528.341 212.418 525.092 206.849C524.525 205.943 523.759 205.158 522.846 204.546C521.932 203.934 520.89 203.509 519.788 203.297C518.686 203.085 517.548 203.092 516.449 203.318C515.35 203.543 514.314 203.981 513.409 204.604C509.473 207.134 507.957 212.429 507.74 216.633C507.498 221.573 512.008 231.832 512.008 231.844Z" fill="#9C9C9C"/>
<path d="M399.004 193.051C402.686 196.34 413.107 199.76 413.935 200.021C411.833 205.573 410.131 211.25 408.839 217.013C408.062 220.361 407.387 223.769 406.763 227.189C406.763 225.586 406.763 224.149 406.763 223.947C406.202 218.343 401.578 207.799 394.966 206.433C393.86 206.232 392.723 206.251 391.626 206.488C390.529 206.725 389.498 207.174 388.6 207.807C387.702 208.44 386.958 209.243 386.415 210.162C385.872 211.081 385.543 212.096 385.449 213.142C384.888 217.571 388.175 222.131 391.437 225.016C394.698 227.902 403.565 231.06 405.909 231.844C405.68 233.15 405.438 234.468 405.221 235.774C404.164 242.079 403.145 248.373 401.934 254.523C401.514 256.685 401.004 258.81 400.507 260.936C400.507 259.511 400.507 258.311 400.507 258.133C399.947 252.517 395.322 241.984 388.71 240.607C387.605 240.408 386.467 240.429 385.371 240.667C384.275 240.906 383.246 241.356 382.349 241.991C381.452 242.625 380.709 243.428 380.168 244.347C379.626 245.267 379.298 246.282 379.206 247.328C378.646 251.745 381.92 256.305 385.181 259.202C388.443 262.099 396.456 264.925 399.195 265.875C398.622 268.036 398.049 270.197 397.386 272.264C396.889 273.665 396.533 275.042 395.959 276.431L394.354 280.528C393.246 283.093 392.112 285.753 390.952 288.246C390.163 289.968 389.373 291.607 388.583 293.257C389.029 291.108 389.857 286.881 389.857 286.524C390.214 280.896 387.309 269.829 381.041 267.526C379.98 267.172 378.852 267.03 377.729 267.109C376.606 267.189 375.513 267.489 374.523 267.988C373.532 268.488 372.666 269.177 371.98 270.01C371.294 270.842 370.805 271.801 370.543 272.822C369.269 277.108 371.817 282.083 374.518 285.42C377.55 289.101 386.888 293.803 388.06 294.385C386.786 297.104 385.436 299.752 384.162 302.222C380.467 309.43 377.053 315.486 374.352 320.128L378.034 322.575C380.709 317.825 384.124 311.401 387.793 303.801C389.143 301.035 390.532 298.054 391.921 294.979C395.235 295.742 398.596 296.317 401.985 296.701C402.622 301.45 407.298 309.572 407.909 310.617C405.196 312.22 402.546 313.752 400.011 315.153C392.812 319.19 386.481 322.444 381.525 324.902L385.538 327.574C390.188 325.127 395.819 322.04 402.1 318.347C404.864 316.732 407.782 314.951 410.75 313.099C411.629 314.001 418.891 321.245 423.49 323.049C427.656 324.676 433.44 325.686 437.581 323.441C438.574 322.948 439.445 322.265 440.135 321.438C440.826 320.61 441.322 319.655 441.59 318.636C441.858 317.618 441.893 316.558 441.691 315.526C441.49 314.494 441.057 313.513 440.422 312.648C436.447 307.53 424.242 307.756 418.484 309.501C418.152 309.608 414.598 311.104 412.381 312.09C413.591 311.33 414.776 310.593 416.012 309.798C418.471 308.23 420.879 306.604 423.465 304.87L427.16 302.198C428.434 301.32 429.618 300.263 430.867 299.289C433.708 296.986 436.472 294.54 439.186 291.975C440.664 293.97 446.015 301.011 449.875 303.22C453.735 305.428 459.29 307.233 463.736 305.594C464.798 305.247 465.77 304.695 466.588 303.974C467.405 303.253 468.051 302.379 468.483 301.41C468.914 300.441 469.122 299.398 469.092 298.35C469.062 297.301 468.796 296.27 468.31 295.323C465.214 289.707 453.098 288.199 447.136 289.113C446.766 289.172 442.562 290.3 440.269 290.918C441.887 289.386 443.518 287.854 445.097 286.239C449.684 281.609 454.168 276.74 458.653 271.99C460.029 270.518 461.43 269.069 462.806 267.621C463.328 268.333 469.482 276.823 473.813 279.305C477.635 281.502 483.228 283.318 487.687 281.68C488.748 281.331 489.718 280.778 490.535 280.056C491.351 279.335 491.996 278.461 492.426 277.492C492.856 276.524 493.063 275.481 493.032 274.433C493.001 273.385 492.734 272.354 492.248 271.409C489.152 265.792 477.037 264.284 471.074 265.198C470.628 265.258 464.577 266.861 463.061 267.336C466.118 264.13 469.189 260.959 472.361 257.943C476.614 253.859 481.146 250.035 485.929 246.497C486.171 246.829 492.554 255.723 496.987 258.264C500.809 260.461 506.402 262.265 510.861 260.639C511.922 260.29 512.893 259.737 513.709 259.015C514.525 258.294 515.17 257.42 515.6 256.451C516.03 255.482 516.237 254.44 516.206 253.392C516.176 252.344 515.908 251.313 515.422 250.368C512.326 244.751 500.211 243.243 494.248 244.169C493.853 244.169 489.254 245.44 487.076 246.057L486.897 245.737C491.819 242.298 497.058 239.274 502.555 236.7C505.561 235.252 508.517 234.029 511.473 232.889C512.479 234.658 517.18 242.697 520.9 245.392C524.62 248.088 529.818 250.344 534.405 249.18C535.5 248.942 536.529 248.492 537.425 247.859C538.322 247.226 539.065 246.424 539.607 245.506C540.149 244.587 540.477 243.573 540.571 242.528C540.665 241.484 540.521 240.433 540.151 239.443C537.73 233.506 525.882 230.799 519.843 231.131C519.512 231.131 516.187 231.666 513.779 232.057C515.053 231.571 516.454 231.036 517.728 230.585C522.518 228.887 527.003 227.605 531.003 226.5C533.271 225.883 535.348 225.313 537.284 224.909C539.246 226.168 547.209 231.143 551.769 231.915C556.33 232.687 562.102 232.497 565.618 229.481C566.473 228.799 567.164 227.957 567.646 227.009C568.129 226.062 568.392 225.03 568.418 223.982C568.445 222.934 568.234 221.892 567.8 220.924C567.366 219.957 566.718 219.085 565.898 218.367C560.802 214.175 548.967 216.835 543.756 219.685C543.297 219.934 536.736 224.553 536.838 224.624L536.953 224.695C535.08 225.099 533.067 225.562 530.876 226.097C526.863 227.13 522.315 228.329 517.473 229.932C512.233 231.634 507.103 233.616 502.109 235.869C496.504 238.353 491.145 241.294 486.095 244.656L485.929 244.787C487.101 243.302 490.261 239.051 490.465 238.695C493.318 233.72 495.701 222.558 491 218.01C490.194 217.278 489.232 216.712 488.177 216.348C487.122 215.985 485.997 215.831 484.874 215.899C483.751 215.966 482.656 216.252 481.659 216.738C480.662 217.225 479.786 217.901 479.088 218.723C476.005 222.131 476.043 227.617 477.037 231.725C478.158 236.356 484.821 244.561 485.356 245.214C480.313 248.76 475.529 252.616 471.036 256.756C468.399 259.131 465.838 261.648 463.29 264.177C464.271 262.859 465.125 261.672 465.227 261.494C468.08 256.53 470.463 245.357 465.762 240.821C464.959 240.086 463.999 239.517 462.944 239.151C461.89 238.785 460.764 238.631 459.641 238.698C458.518 238.765 457.423 239.052 456.427 239.541C455.432 240.03 454.558 240.708 453.863 241.533C450.767 244.929 450.805 250.415 451.799 254.523C452.792 258.632 458.347 265.804 459.838 267.656L456.933 270.589C452.321 275.339 447.747 280.029 443.097 284.53C441.466 286.121 439.785 287.629 438.116 289.149C438.982 287.961 439.708 286.988 439.798 286.774C442.651 281.81 445.034 270.637 440.333 266.101C439.529 265.367 438.568 264.798 437.513 264.432C436.458 264.066 435.333 263.912 434.209 263.978C433.086 264.044 431.99 264.329 430.993 264.816C429.996 265.302 429.119 265.979 428.421 266.801C425.338 270.209 425.376 275.695 426.37 279.804C427.363 283.912 432.37 290.384 434.141 292.604C432.383 294.1 430.625 295.608 428.841 296.997C427.567 297.912 426.484 298.874 425.185 299.74L421.427 302.329C418.98 303.908 416.458 305.535 414.025 307.019C412.33 308.052 410.712 309.014 409.069 309.988C410.725 308.42 413.884 305.298 414.165 305.013C417.195 300.934 419.054 296.2 419.566 291.262C419.926 290.823 420.242 290.354 420.509 289.861C421.043 288.938 421.363 287.92 421.448 286.873C421.532 285.827 421.38 284.776 421 283.789C420.62 282.801 420.022 281.899 419.244 281.141C418.466 280.382 417.525 279.785 416.483 279.388C410.113 277.168 400.087 283.627 396.329 288.044C396.099 288.306 394.036 291.381 392.762 293.34C393.322 292.082 393.883 290.87 394.443 289.564C395.564 286.999 396.609 284.411 397.73 281.62C398.227 280.255 398.737 278.877 399.233 277.488C399.73 276.099 400.138 274.615 400.609 273.166C401.616 269.77 402.457 266.303 403.221 262.776C405.629 263.69 414.254 266.813 418.789 266.671C423.325 266.528 428.981 265.175 431.771 261.529C432.45 260.692 432.931 259.732 433.185 258.71C433.439 257.688 433.458 256.628 433.243 255.599C433.028 254.569 432.583 253.594 431.936 252.735C431.29 251.877 430.457 251.155 429.491 250.617C423.592 247.518 412.598 252.493 408.164 256.316C407.884 256.566 405.03 259.641 403.501 261.363C403.934 259.249 404.393 257.136 404.775 254.975C405.845 248.741 406.725 242.412 407.642 236.095C407.909 234.159 408.215 232.236 408.508 230.312C409.362 230.644 419.528 234.563 424.612 234.397C429.121 234.254 434.803 232.901 437.581 229.255C438.26 228.419 438.742 227.459 438.997 226.438C439.251 225.417 439.272 224.357 439.058 223.328C438.844 222.298 438.4 221.322 437.755 220.464C437.11 219.605 436.278 218.882 435.313 218.343C429.402 215.256 418.407 220.219 413.974 224.054C413.642 224.339 409.54 228.804 408.559 229.991C409.209 225.752 409.833 221.525 410.75 217.381C411.893 211.782 413.421 206.257 415.324 200.84C415.719 200.995 426.306 205.139 431.517 204.972C436.027 204.818 441.709 203.476 444.486 199.831C445.165 198.994 445.648 198.033 445.902 197.011C446.157 195.989 446.178 194.928 445.964 193.898C445.75 192.867 445.306 191.891 444.661 191.031C444.015 190.171 443.183 189.447 442.218 188.907C436.307 185.819 425.325 190.783 420.879 194.618C420.586 194.867 417.464 198.252 416.012 199.89L415.681 199.712C417.724 194.317 420.283 189.103 423.325 184.133C424.981 181.378 426.714 178.825 428.421 176.379C430.306 177.341 438.982 181.628 443.709 181.972C448.219 182.281 454.041 181.521 457.213 178.184C457.986 177.422 458.577 176.517 458.95 175.527C459.322 174.538 459.467 173.486 459.374 172.441C459.282 171.396 458.954 170.381 458.413 169.461C457.871 168.542 457.128 167.74 456.232 167.106C450.728 163.425 439.224 167.236 434.358 170.597C434.103 170.775 431.631 172.9 429.86 174.48C430.663 173.387 431.478 172.247 432.281 171.214C435.262 167.343 438.256 163.959 440.919 160.979C442.46 159.304 443.887 157.808 445.225 156.431C447.607 156.431 457.2 156.526 461.456 154.828C465.711 153.13 470.374 149.995 471.571 145.673C471.881 144.663 471.958 143.603 471.799 142.563C471.639 141.523 471.246 140.526 470.645 139.637C470.043 138.749 469.248 137.988 468.31 137.406C467.372 136.823 466.313 136.431 465.201 136.256C458.5 135.354 450.168 143.69 447.505 148.748C447.276 149.187 444.537 156.419 444.652 156.419H444.804C443.53 157.725 442.065 159.138 440.562 160.717C437.823 163.638 434.74 166.975 431.644 170.798C428.268 174.897 425.15 179.175 422.306 183.611C419.103 188.565 416.378 193.774 414.165 199.178L414.088 199.38C414.203 197.527 414.305 192.362 414.267 191.958C413.706 186.342 409.081 175.809 402.469 174.444C401.365 174.245 400.229 174.265 399.133 174.503C398.038 174.741 397.009 175.191 396.113 175.823C395.216 176.456 394.473 177.258 393.93 178.176C393.388 179.094 393.059 180.108 392.965 181.153C392.468 185.582 395.743 190.142 399.004 193.051Z" fill="#9C9C9C"/>
<path d="M476.056 402.072V398.094C476.056 377.611 503.88 376.721 503.88 362.139C503.88 355.81 498.35 351.678 490.12 351.678C481.113 351.678 475.419 356.25 475.419 362.733V364.36C475.419 365.975 474.476 366.735 472.73 366.735L455.824 366.141C454.245 366.141 453.136 365.405 453.136 364.384V362.757C453.136 344.946 468.31 332.703 490.605 332.703C512.415 332.703 526.48 344.197 526.48 361.427C526.48 385.888 498.185 386.042 498.185 399.424V402.072C498.228 402.411 498.188 402.754 498.068 403.077C497.948 403.399 497.751 403.691 497.493 403.933C497.234 404.174 496.92 404.357 496.574 404.469C496.228 404.581 495.86 404.618 495.497 404.578H478.744C478.38 404.618 478.012 404.581 477.666 404.469C477.32 404.357 477.006 404.174 476.748 403.933C476.489 403.691 476.292 403.399 476.172 403.077C476.052 402.754 476.013 402.411 476.056 402.072V402.072ZM474.629 425.821C474.629 419.337 480.795 414.03 488.222 414.03C495.344 414.03 501.663 419.337 501.663 425.821C501.663 432.304 495.293 437.612 488.069 437.612C480.846 437.612 474.629 432.28 474.629 425.797V425.821Z" fill="#263238"/>
<path d="M142.013 233.34V229.885C142.013 212.073 166.219 211.325 166.219 198.655C166.219 193.146 161.416 189.572 154.281 189.572C146.446 189.572 141.541 193.538 141.541 199.166V200.579C141.541 201.98 140.726 202.621 139.21 202.621L124.521 202.111C123.145 202.111 122.189 201.47 122.189 200.579V199.166C122.189 183.729 135.362 173.043 154.727 173.043C173.672 173.043 185.902 183.029 185.902 197.979C185.902 219.221 161.314 219.352 161.314 231.001V233.304C161.351 233.598 161.316 233.895 161.211 234.175C161.107 234.454 160.937 234.708 160.712 234.917C160.488 235.126 160.216 235.285 159.916 235.382C159.617 235.479 159.297 235.512 158.982 235.477H144.344C144.033 235.511 143.717 235.478 143.421 235.383C143.124 235.288 142.854 235.132 142.631 234.928C142.407 234.723 142.236 234.474 142.129 234.199C142.022 233.924 141.982 233.631 142.013 233.34V233.34ZM140.739 253.942C140.739 248.313 146.09 243.706 152.536 243.706C158.715 243.706 164.219 248.313 164.219 253.942C164.219 259.57 158.715 264.177 152.409 264.177C149.413 264.248 146.509 263.211 144.33 261.294C142.151 259.376 140.874 256.733 140.777 253.942H140.739Z" fill="#407BFF"/>
<path d="M449.505 97.0835V95.338C449.505 86.3492 461.71 85.9573 461.71 79.5571C461.71 76.7786 459.277 74.9618 455.672 74.9618C451.722 74.9618 449.225 76.9686 449.225 79.8184V80.5308C449.225 81.2433 448.805 81.5639 448.04 81.5639L440.626 81.3026C439.925 81.3026 439.441 80.982 439.441 80.5308V79.8184C439.441 71.9933 446.104 66.6261 455.888 66.6261C465.456 66.6261 471.635 71.6727 471.635 79.2365C471.635 89.9233 459.213 90.0302 459.213 95.8604V97.0478C459.232 97.1966 459.214 97.3473 459.161 97.4886C459.108 97.6299 459.021 97.7581 458.907 97.8634C458.793 97.9687 458.654 98.0483 458.502 98.0963C458.35 98.1443 458.188 98.1593 458.028 98.1403H450.677C450.522 98.1587 450.364 98.1444 450.216 98.0983C450.067 98.0522 449.932 97.9757 449.819 97.8742C449.707 97.7727 449.62 97.649 449.566 97.5121C449.511 97.3753 449.491 97.2288 449.505 97.0835V97.0835ZM448.881 107.497C448.799 106.387 449.078 105.279 449.68 104.319C450.283 103.358 451.182 102.588 452.26 102.11C453.338 101.632 454.546 101.467 455.726 101.637C456.906 101.807 458.004 102.304 458.877 103.064C459.749 103.823 460.357 104.81 460.62 105.895C460.883 106.981 460.79 108.115 460.352 109.15C459.914 110.186 459.152 111.074 458.165 111.701C457.178 112.327 456.012 112.662 454.818 112.662C454.064 112.688 453.312 112.574 452.605 112.328C451.898 112.082 451.251 111.708 450.699 111.229C450.147 110.749 449.703 110.172 449.391 109.532C449.079 108.891 448.906 108.2 448.881 107.497Z" fill="#407BFF"/>
<path d="M91.7279 337.227V335.031C91.7279 323.703 107.118 323.216 107.118 315.141C107.118 311.638 104.06 309.359 99.4739 309.359C94.4925 309.359 91.3457 311.888 91.3457 315.474V316.364C91.3457 317.267 90.8234 317.67 89.8552 317.67L80.504 317.35C79.6249 317.35 79.0134 316.934 79.0134 316.364V315.474C79.0134 305.618 87.4091 298.85 99.7414 298.85C111.806 298.85 119.578 305.203 119.578 314.738C119.578 328.262 103.933 328.345 103.933 335.767V337.227C103.958 337.415 103.936 337.606 103.87 337.785C103.804 337.964 103.695 338.127 103.551 338.261C103.407 338.395 103.233 338.496 103.041 338.558C102.849 338.62 102.644 338.64 102.442 338.617H93.193C92.9934 338.636 92.7916 338.613 92.6028 338.549C92.4139 338.486 92.2427 338.384 92.102 338.25C91.9613 338.117 91.8546 337.956 91.7899 337.779C91.7251 337.601 91.7039 337.413 91.7279 337.227V337.227ZM90.9381 350.348C90.8383 348.949 91.1927 347.555 91.9552 346.346C92.7177 345.138 93.8528 344.171 95.213 343.572C96.5731 342.973 98.0951 342.77 99.581 342.989C101.067 343.207 102.448 343.838 103.544 344.798C104.64 345.758 105.4 347.004 105.726 348.373C106.052 349.741 105.928 351.17 105.371 352.472C104.813 353.774 103.848 354.89 102.601 355.674C101.354 356.458 99.8825 356.874 98.3782 356.867C96.4609 356.925 94.5975 356.271 93.1976 355.048C91.7976 353.826 90.9758 352.135 90.9126 350.348H90.9381Z" stroke="#263238" stroke-miterlimit="10"/>
<path d="M208.936 132.255V130.747C208.936 122.957 219.523 122.613 219.523 117.068C219.523 114.693 217.421 113.09 214.287 113.09C210.86 113.09 208.694 114.824 208.694 117.293V117.911C208.694 118.528 208.337 118.801 207.675 118.801L201.305 118.576C200.706 118.576 200.286 118.303 200.286 117.911V117.293C200.286 110.513 206.057 105.858 214.529 105.858C223.001 105.858 228.046 110.228 228.046 116.783C228.046 126.092 217.281 126.152 217.281 131.246V132.255C217.297 132.383 217.282 132.513 217.237 132.636C217.191 132.758 217.117 132.869 217.018 132.96C216.92 133.052 216.801 133.121 216.67 133.164C216.539 133.206 216.399 133.22 216.261 133.205H209.891C209.759 133.211 209.626 133.19 209.503 133.143C209.38 133.097 209.269 133.026 209.178 132.936C209.087 132.845 209.019 132.738 208.977 132.62C208.935 132.502 208.921 132.378 208.936 132.255V132.255ZM208.401 141.279C208.345 140.33 208.595 139.388 209.12 138.573C209.645 137.758 210.42 137.109 211.345 136.709C212.27 136.309 213.302 136.177 214.308 136.33C215.314 136.483 216.248 136.913 216.989 137.566C217.73 138.219 218.244 139.063 218.465 139.991C218.685 140.919 218.602 141.887 218.226 142.77C217.85 143.653 217.198 144.411 216.355 144.945C215.512 145.48 214.516 145.766 213.497 145.768C212.181 145.809 210.901 145.363 209.939 144.525C208.976 143.688 208.409 142.529 208.363 141.303L208.401 141.279Z" fill="#263238"/>
<path d="M397.488 457.786V456.278C397.488 448.489 408.075 448.156 408.075 442.599C408.075 440.224 405.973 438.621 402.839 438.621C399.412 438.621 397.246 440.355 397.246 442.825V443.442C397.246 444.06 396.889 444.344 396.227 444.344L389.857 444.119C389.258 444.119 388.837 443.834 388.837 443.442V442.825C388.837 436.044 394.609 431.39 403.081 431.39C411.553 431.39 416.738 435.759 416.738 442.326C416.738 451.623 405.973 451.683 405.973 456.777V457.786C405.989 457.915 405.974 458.046 405.928 458.168C405.883 458.291 405.808 458.402 405.711 458.495C405.613 458.587 405.494 458.658 405.363 458.702C405.232 458.745 405.092 458.761 404.954 458.748H398.584C398.439 458.773 398.291 458.767 398.15 458.728C398.009 458.69 397.88 458.621 397.773 458.527C397.666 458.433 397.584 458.317 397.535 458.189C397.485 458.06 397.469 457.922 397.488 457.786V457.786ZM396.953 466.81C396.897 465.862 397.147 464.919 397.672 464.104C398.197 463.29 398.972 462.64 399.897 462.241C400.822 461.841 401.854 461.709 402.86 461.861C403.866 462.014 404.8 462.444 405.541 463.097C406.282 463.75 406.796 464.595 407.017 465.522C407.237 466.45 407.154 467.418 406.778 468.301C406.402 469.185 405.75 469.942 404.907 470.477C404.064 471.011 403.068 471.297 402.049 471.299C400.737 471.328 399.467 470.872 398.515 470.031C397.562 469.19 397.006 468.033 396.966 466.81H396.953Z" stroke="#263238" stroke-miterlimit="10"/>
<path d="M347.611 484.812C347.522 484.562 347.432 484.313 347.331 484.064C347.229 483.814 347.152 483.553 347.05 483.304C346.948 483.054 346.872 482.805 346.77 482.556C346.668 482.306 346.592 482.045 346.49 481.796C346.388 481.546 346.311 481.297 346.209 481.048C346.107 480.798 346.031 480.537 345.929 480.288L345.649 479.54C345.56 479.278 345.458 479.029 345.369 478.78L345.088 478.032C344.999 477.77 344.897 477.521 344.808 477.272L344.528 476.524C344.439 476.262 344.337 476.013 344.247 475.764L343.98 474.968C343.891 474.707 343.789 474.457 343.7 474.208L343.407 473.46C343.317 473.199 343.228 472.949 343.126 472.7C343.024 472.451 342.948 472.201 342.846 471.952C342.744 471.703 342.668 471.441 342.566 471.192C342.464 470.943 342.387 470.693 342.286 470.444C338.132 458.665 325.29 450.02 311.162 450.02C297.466 450.02 285.554 457.454 280.586 467.927C280.458 468.164 280.344 468.413 280.229 468.651L279.885 469.387C279.758 469.625 279.643 469.862 279.528 470.111C279.414 470.361 279.286 470.598 279.172 470.836L278.828 471.56C278.7 471.81 278.585 472.047 278.471 472.296C278.356 472.546 278.229 472.771 278.114 473.021C277.999 473.27 277.872 473.496 277.757 473.745L277.413 474.469C277.286 474.707 277.171 474.956 277.057 475.194C276.942 475.431 276.815 475.68 276.7 475.918L276.356 476.654C276.229 476.892 276.114 477.129 275.999 477.378C275.885 477.628 275.757 477.865 275.643 478.103L275.299 478.827C275.171 479.077 275.057 479.314 274.942 479.563C274.827 479.813 274.7 480.038 274.585 480.288L274.241 481.012C274.114 481.249 273.999 481.499 273.884 481.736C273.77 481.974 273.642 482.223 273.528 482.473C271.342 486.811 270.219 491.549 270.241 496.342C270.241 515.459 287.949 531.086 309.849 531.086C331.278 531.086 349.917 515.459 349.917 496.342C349.913 492.697 349.227 489.08 347.891 485.655C347.802 485.31 347.713 485.061 347.611 484.812Z" fill="#263238"/>
<path d="M317.302 221.81C251.602 221.81 206.872 257.848 206.872 310.403V315.153C206.884 315.938 207.113 316.707 207.537 317.385C207.961 318.063 208.566 318.628 209.293 319.024C209.568 319.271 209.866 319.493 210.184 319.689C210.461 319.939 210.764 320.162 211.089 320.354C211.365 320.604 211.668 320.827 211.994 321.019C212.267 321.272 212.571 321.495 212.898 321.684C213.17 321.934 213.469 322.157 213.79 322.349C214.066 322.603 214.369 322.83 214.694 323.026C214.974 323.272 215.277 323.495 215.599 323.691C215.876 323.94 216.179 324.163 216.504 324.356C216.776 324.605 217.075 324.828 217.395 325.021C217.695 325.29 218.023 325.528 218.376 325.733C218.636 325.954 218.913 326.156 219.204 326.339C219.484 326.585 219.786 326.808 220.109 327.004C220.384 327.25 220.682 327.473 221.001 327.669C221.28 327.915 221.583 328.138 221.905 328.334C222.182 328.583 222.485 328.806 222.81 328.998C223.082 329.248 223.381 329.471 223.702 329.663C223.978 329.913 224.281 330.136 224.606 330.328C224.878 330.578 225.177 330.8 225.498 330.993C225.777 331.24 226.08 331.463 226.402 331.658C226.675 331.908 226.974 332.13 227.294 332.323C228.766 333.531 230.687 334.153 232.645 334.057L273.617 335.482C277.834 335.482 280.127 333.701 280.127 329.77V325.852C280.127 310.142 293.912 299.087 315.799 299.087C335.712 299.087 349.114 309.074 349.114 324.427C349.115 326.176 348.935 327.922 348.579 329.64C328.017 354.765 274.496 365.844 274.496 414.611V426.343C274.496 431.093 277.286 433.717 282.42 433.717H331.75C336.846 433.717 339.674 431.117 339.674 426.343V418.518C339.674 379.001 423.083 378.561 423.083 306.473C423.083 255.675 381.601 221.81 317.302 221.81Z" fill="#263238"/>
<path d="M274.432 426.367V414.635C274.432 354.267 356.44 351.702 356.44 308.67C356.44 289.992 340.132 277.797 315.901 277.797C289.338 277.797 272.585 291.262 272.585 310.368V315.118C272.585 319.867 269.782 322.076 264.661 322.076L214.796 320.33C210.146 320.33 206.885 318.157 206.885 315.118V310.368C206.885 257.813 251.615 221.774 317.315 221.774C381.614 221.774 423.057 255.64 423.057 306.461C423.057 378.549 339.648 378.989 339.648 418.506V426.331C339.648 431.081 336.846 433.705 331.724 433.705H282.357C277.222 433.741 274.432 431.14 274.432 426.367ZM270.241 496.342C270.241 477.236 288.408 461.598 310.308 461.598C331.278 461.598 349.917 477.236 349.917 496.342C349.917 515.447 331.24 531.026 309.849 531.026C287.924 531.026 270.241 515.4 270.241 496.342Z" fill="#407BFF" stroke="#407BFF" stroke-miterlimit="10"/>
<path d="M307.811 569.962C346.235 569.962 377.384 563.47 377.384 555.463C377.384 547.456 346.235 540.965 307.811 540.965C269.387 540.965 238.238 547.456 238.238 555.463C238.238 563.47 269.387 569.962 307.811 569.962Z" fill="#263238"/>
<path d="M254.634 226.619L251.972 232.034C251.972 232.034 236.505 233.589 236.505 234.67C236.505 235.75 236.671 243.196 237.512 243.504C238.151 243.736 238.86 243.736 239.499 243.504L262.278 238.078L264.444 228.471L254.634 226.619Z" fill="white" stroke="#263238" stroke-linecap="round" stroke-linejoin="round"/>
<path d="M250.303 236.297C247.474 238.456 244.423 240.35 241.194 241.949C237.512 243.492 237.372 245.832 238.544 245.832C239.716 245.832 250.112 241.771 250.112 241.771C250.112 241.771 259.552 239.467 260.915 238.766C262.278 238.066 262.431 234.171 262.431 234.171" fill="white"/>
<path d="M250.303 236.297C247.474 238.456 244.423 240.35 241.194 241.949C237.512 243.492 237.372 245.832 238.544 245.832C239.716 245.832 250.112 241.771 250.112 241.771C250.112 241.771 259.552 239.467 260.915 238.766C262.278 238.066 262.431 234.171 262.431 234.171" stroke="#263238" stroke-linecap="round" stroke-linejoin="round"/>
<path d="M268.241 122.577L258.737 190.474L252.125 227.237L266.801 230.466L277.745 186.983L282.93 159.613L268.241 122.577Z" fill="#7D7D7D" stroke="#263238" stroke-linecap="round" stroke-linejoin="round"/>
<path d="M344.936 73.4182L339.139 72.5632L327.265 68.3716L326.832 81.5164L345.241 83.0957L344.936 73.4182Z" fill="white" stroke="#263238" stroke-linecap="round" stroke-linejoin="round"/>
<path d="M277.171 314.191C272.851 318.886 268.815 323.802 265.081 328.915C260.176 335.897 261.909 343.402 267.96 345.29C274.012 347.178 281.771 342.06 283.796 338.035C285.822 334.009 285.236 331.872 288.395 327.847C291.555 323.821 294.154 319.796 293.007 314.429C291.861 309.062 280.28 310.439 277.171 314.191Z" fill="#7D7D7D" stroke="#263238" stroke-linecap="round" stroke-linejoin="round"/>
<path d="M283.21 339.044C282.803 338.237 282.331 337.382 281.771 336.467C277.146 328.88 269.031 329.485 263.935 330.898C260.584 337.275 262.495 343.616 267.986 345.326C273.477 347.035 280.56 342.856 283.21 339.044Z" fill="white" stroke="#263238" stroke-linecap="round" stroke-linejoin="round"/>
<path d="M281.771 336.467C280.051 338.842 277.745 345.325 268.814 342.642C266.324 342.046 264.096 340.738 262.444 338.902C262.637 340.35 263.261 341.719 264.244 342.854C265.228 343.989 266.533 344.845 268.011 345.326C274.05 347.202 281.822 342.096 283.847 338.07C285.873 334.045 285.287 331.908 288.446 327.882C291.606 323.857 294.205 319.832 293.058 314.464C293.058 320.9 290.51 321.969 287.3 325.46C284.089 328.951 283.503 334.045 281.771 336.467Z" fill="white" stroke="#263238" stroke-linecap="round" stroke-linejoin="round"/>
<path d="M362.134 314.191C366.455 318.886 370.491 323.802 374.225 328.915C379.13 335.897 377.397 343.402 371.346 345.29C365.294 347.178 357.535 342.06 355.51 338.035C353.484 334.009 354.07 331.872 350.911 327.847C347.751 323.821 345.152 319.796 346.299 314.429C347.445 309.062 358.975 310.439 362.134 314.191Z" fill="#7D7D7D" stroke="#263238" stroke-linecap="round" stroke-linejoin="round"/>
<path d="M356.108 339.044C356.503 338.237 356.975 337.382 357.535 336.467C362.16 328.88 370.275 329.485 375.371 330.898C378.722 337.275 376.811 343.616 371.32 345.326C365.829 347.035 358.746 342.856 356.108 339.044Z" fill="white" stroke="#263238" stroke-linecap="round" stroke-linejoin="round"/>
<path d="M357.535 336.467C359.255 338.842 361.561 345.325 370.492 342.642C372.982 342.046 375.21 340.738 376.862 338.902C376.669 340.35 376.045 341.719 375.061 342.854C374.078 343.989 372.773 344.845 371.295 345.326C365.256 347.202 357.484 342.096 355.459 338.07C353.433 334.045 354.019 331.908 350.86 327.882C347.7 323.857 345.101 319.832 346.248 314.464C346.248 320.9 348.796 321.969 352.006 325.46C355.217 328.951 355.803 334.045 357.535 336.467Z" fill="white" stroke="#263238" stroke-linecap="round" stroke-linejoin="round"/>
<path d="M375.639 221.608C375.639 216.775 366.721 211.408 366.721 211.408C353.28 198.667 329.023 200.353 320.067 201.493C311.149 200.306 286.867 198.667 273.426 211.408C273.426 211.408 264.508 216.775 264.508 221.608C264.508 226.441 275.745 313.657 275.745 313.657C275.745 313.657 275.452 318.217 283.516 318.751C291.58 319.285 294.982 314.999 294.982 314.999L298.154 241.201C298.154 241.201 311.111 232.604 313.442 232.342C314.283 232.236 315.379 232.069 316.602 231.927V232.069C318.883 231.626 321.238 231.626 323.52 232.069V231.927C324.794 232.069 325.826 232.236 326.679 232.342C328.985 232.604 341.967 241.201 341.967 241.201L345.139 314.999C345.139 314.999 348.592 319.285 356.605 318.751C364.619 318.217 364.377 313.657 364.377 313.657C364.377 313.657 375.639 226.441 375.639 221.608Z" fill="#263238" stroke="#263238" stroke-linecap="round" stroke-linejoin="round"/>
<path d="M341.954 241.201C341.954 241.201 340.222 223.484 348.579 216.775" stroke="#707070" stroke-linecap="round" stroke-linejoin="round"/>
<path d="M298.192 241.201C298.192 241.201 299.059 226.441 297.326 221.074C295.593 215.707 292.714 213.557 292.714 213.557" stroke="#707070" stroke-linecap="round" stroke-linejoin="round"/>
<path d="M308.843 206.041C308.843 206.041 318.054 215.968 319.787 224.292" stroke="#707070" stroke-linecap="round" stroke-linejoin="round"/>
<path d="M328.998 206.611C328.998 206.611 323.813 211.978 323.239 216.004" stroke="#707070" stroke-linecap="round" stroke-linejoin="round"/>
<path d="M316.041 102.189C316.041 102.189 307.696 101.109 304.817 103.792C301.938 106.476 292.141 116.367 292.141 116.367L297.326 201.707C297.326 201.707 309.136 206.006 319.213 206.006C329.291 206.006 340.808 202.514 343.419 200.638C346.031 198.762 343.712 107.248 343.712 107.248C343.712 107.248 322.322 101.382 316.041 102.189Z" fill="#407BFF" stroke="#263238" stroke-linecap="round" stroke-linejoin="round"/>
<path d="M331.304 104.065C335.687 103.445 340.108 103.084 344.541 102.985C350.299 102.985 356.007 103.258 356.007 103.258L370.403 90.3745L341.432 84.2L343.738 71.8627C343.738 71.8627 365.039 70.5209 375.69 72.397C386.341 74.2731 403.043 79.1059 403.909 79.1059C404.775 79.1059 405.922 82.0626 405.056 84.2C404.189 86.3373 377.104 114.265 369.014 121.509C363.722 126.342 358.724 131.448 354.045 136.803L350.35 196.649C350.35 196.649 359.854 201.481 361.587 203.084C363.319 204.687 365.332 211.135 365.332 211.135C365.332 211.135 347.764 204.426 343.152 203.892C338.54 203.358 335.674 203.084 334.807 201.517C333.941 199.95 326.743 128.253 326.743 128.253L327.036 105.443C327.036 105.443 326.985 104.065 331.304 104.065Z" fill="#7D7D7D" stroke="#263238" stroke-linecap="round" stroke-linejoin="round"/>
<path d="M348.579 140.828L333.024 142.704L334.463 148.071L342.247 149.947L349.726 146.73L348.579 140.828Z" stroke="#263238" stroke-linecap="round" stroke-linejoin="round"/>
<path d="M357.497 108.625L354.045 136.803L362.975 112.924" stroke="#263238" stroke-linecap="round" stroke-linejoin="round"/>
<path d="M370.454 90.3745C370.454 90.3745 377.652 91.7163 388.595 87.691" stroke="#263238" stroke-linecap="round" stroke-linejoin="round"/>
<path d="M377.945 92.2507C382.674 92.3734 387.403 92.015 392.048 91.182" stroke="#263238" stroke-linecap="round" stroke-linejoin="round"/>
<path d="M306.257 101.916L307.697 121.509C309.009 123.117 310.708 124.417 312.658 125.301C314.607 126.186 316.752 126.632 318.92 126.603C326.119 126.341 326.985 121.509 326.985 121.509V105.407L306.257 101.916Z" fill="white" stroke="#263238" stroke-linecap="round" stroke-linejoin="round"/>
<path d="M327.265 112.116L326.692 128.241L332.743 119.383C332.743 119.383 339.368 127.161 341.088 126.9C342.808 126.638 339.941 123.409 339.368 120.464C338.795 117.519 333.89 107.034 333.317 104.089C332.743 101.144 327.265 100.598 326.947 101.94C326.787 103.099 326.787 104.272 326.947 105.431L327.265 112.116Z" fill="#7D7D7D" stroke="#263238" stroke-linecap="round" stroke-linejoin="round"/>
<path d="M307.403 126.603C307.403 126.603 308.55 201.743 305.671 202.598C302.792 203.453 291.275 203.678 284.013 206.896C276.751 210.114 273.362 211.456 273.362 211.456C273.362 211.456 276.815 203.678 280.853 200.187C283.538 197.939 286.538 196.041 289.771 194.547L282.293 158.592C282.293 158.592 268.47 124.501 268.177 122.625C267.884 120.749 294.383 106.797 299.849 104.374C305.314 101.952 306.766 104.113 306.766 104.113L307.403 126.603Z" fill="#7D7D7D" stroke="#263238" stroke-linecap="round" stroke-linejoin="round"/>
<path d="M300.205 100.574C300.205 100.574 293.3 120.974 292.714 123.658C292.128 126.341 292.714 126.341 294.74 124.453C296.766 122.565 301.938 118.018 301.938 118.018L307.403 126.603L307.11 110.774V101.643C307.11 101.643 306.83 97.8909 300.205 100.574Z" fill="#7D7D7D" stroke="#263238" stroke-linecap="round" stroke-linejoin="round"/>
<path d="M286.675 144.592H303.658L303.378 151.028L295.886 153.438L286.382 151.028L286.675 144.592Z" stroke="#263238" stroke-linecap="round" stroke-linejoin="round"/>
<path d="M333.317 74.0119C333.317 74.0119 337.342 90.3745 338.209 93.0106C339.075 95.6467 333.61 106.167 331.839 108.578C331.165 109.623 330.238 110.507 329.132 111.159C328.026 111.81 326.771 112.211 325.469 112.33C323.456 112.33 312.512 108.851 309.913 107.236C307.314 105.621 304.741 103.745 304.741 103.745C303.516 104.265 302.155 104.441 300.824 104.252C299.494 104.062 298.251 103.514 297.25 102.676C293.797 99.7195 289.185 96.2285 290.332 93.8181C290.89 92.6352 291.826 91.6409 293.01 90.9698C294.195 90.2986 295.573 89.9831 296.957 90.0658C300.129 90.0658 298.982 89.7927 298.982 89.7927C298.982 89.7927 293.224 82.0151 293.224 75.8405C293.224 69.6659 305.594 65.1537 312.793 65.1537C317.77 65.3471 322.659 66.4399 327.189 68.3716L333.317 74.0119Z" fill="white" stroke="#263238" stroke-linecap="round" stroke-linejoin="round"/>
<path d="M323.239 80.1746L328.424 89.3059L323.239 92.5238L320.933 89.8402" stroke="#263238" stroke-linecap="round" stroke-linejoin="round"/>
<path d="M332.743 88.4984C332.743 88.4984 333.024 90.6476 329.571 94.1387" stroke="#263238" stroke-linecap="round" stroke-linejoin="round"/>
<path d="M317.774 83.535C317.774 84.7937 317.188 85.8148 316.5 85.8148C315.812 85.8148 315.226 84.7937 315.226 83.535C315.226 82.2763 315.812 81.2552 316.5 81.2552C317.188 81.2552 317.774 82.2763 317.774 83.535Z" fill="#263238"/>
<path d="M326.832 81.5164C327.55 81.5164 328.131 80.4957 328.131 79.2365C328.131 77.9774 327.55 76.9567 326.832 76.9567C326.114 76.9567 325.532 77.9774 325.532 79.2365C325.532 80.4957 326.114 81.5164 326.832 81.5164Z" fill="#263238"/>
<path d="M302.218 60.0478C302.218 60.0478 284.102 66.2224 283.503 74.0119C282.904 81.8014 299.632 92.5238 300.498 93.8656C301.365 95.2073 303.951 92.2507 303.951 92.2507C303.375 91.5297 302.973 90.7011 302.773 89.8219C302.573 88.9426 302.579 88.0334 302.792 87.1566C303.658 84.4731 307.403 81.2195 307.403 79.9134C307.403 78.6072 303.085 80.982 303.085 76.9567C303.085 72.9313 313.735 70.5209 320.067 70.7821C326.399 71.0433 331.877 80.982 336.489 76.1492C341.101 71.3164 334.463 69.9865 334.463 69.9865C334.463 69.9865 343.381 68.906 343.381 64.6194C343.381 60.3328 338.769 57.3643 336.756 57.3643C334.744 57.3643 329.278 60.594 329.278 57.103C329.278 53.612 334.744 51.9971 329.558 46.4163C324.373 40.8354 317.761 46.4163 317.761 48.5655C317.761 50.7147 316.028 54.7282 314.882 54.7282C313.735 54.7282 310.27 49.9073 306.244 52.5908C305.034 53.4879 304.047 54.6193 303.352 55.9068C302.657 57.1944 302.27 58.6073 302.218 60.0478V60.0478Z" fill="#263238" stroke="#263238" stroke-linecap="round" stroke-linejoin="round"/>
<path d="M309.709 80.7208L318.92 77.491" stroke="#263238" stroke-linecap="round" stroke-linejoin="round"/>
<path d="M320.36 73.7388C320.184 72.8964 320.328 72.0231 320.768 71.269" stroke="#263238" stroke-linecap="round" stroke-linejoin="round"/>
<path d="M320.768 71.2452C321.417 70.0578 322.883 68.526 326.118 67.2792" stroke="white" stroke-linecap="round" stroke-linejoin="round"/>
</svg>
